<?xml version="1.0" encoding="utf-8"?>
<!-- Generator: Adobe Illustrator 19.2.1, SVG Export Plug-In . SVG Version: 6.00 Build 0)  -->
<svg version="1.1" id="Layer_1" xmlns="http://www.w3.org/2000/svg" xmlns:xlink="http://www.w3.org/1999/xlink" x="0px" y="0px"
	 viewBox="0 0 16 15.1" style="enable-background:new 0 0 16 15.1;" xml:space="preserve">
<g>
	<path d="M-78,37.2v10.9h4.8c1.8,0,3.3-1.5,3.3-3.3v0c0,0,0.5-5.2-6.3-8.2c0,0-8.8-3.8-15.4-5.4c0,0,28.3-1.1,28.3,15.1
		c0,0-0.2,3-2,4.7c-1.5,1.5-3.8,2.4-7.3,2.4h-11V34.9C-83.6,34.9-80.3,36.2-78,37.2z"/>
	<path d="M-69,32.7c0,0,0,0.9-0.5,1.7c0,0,2.1,1.1,3.7,2.8c2-1.5,2.6-3.6,2.6-5.3c0-1.6-0.6-3.1-1.7-4.4c-0.6-0.7-1.5-1.3-2.8-1.7
		c-1.2-0.4-2.7-0.6-4.4-0.6h-11.6v5.5c1.7,0.2,3.6,0.5,5.6,0.9v-1.7h4.6c1.6,0,2.8,0.2,3.5,0.5C-69.4,30.8-69,31.6-69,32.7
		C-69,32.7-69,32.8-69,32.7"/>
	<path d="M-48.8,33.6V36c-1.5-1.9-3.7-2.8-6.4-2.8c-1.4,0-2.7,0.3-4,1c-1.3,0.7-2.3,1.7-3.2,3.2c-0.4,0.6-0.7,1.4-0.9,2.2
		c1.2,2,1.8,4.3,1.8,6.8l0,0.1c0,0.2-0.1,1.7-0.8,3.2c0.3,0.6,0.7,1.1,1.1,1.6c1.7,1.8,3.8,2.7,6.3,2.7c1.3,0,2.5-0.3,3.7-1
		c1.2-0.7,1.9-1.5,2.1-2.4h0.2v0.4v0.4V52v1.5h7.7V48V33.6H-48.8z M-49.6,47.9c-0.7,1.2-1.6,1.8-2.6,1.8c-2.5,0-3.8-2.1-3.8-6.4
		c0-0.9,0.1-1.7,0.2-2.4l0.6-1.8c0.5-1,1.5-1.6,2.8-1.6c2.3,0,3.5,1.9,3.5,5.8C-48.8,45.1-49.1,46.7-49.6,47.9z"/>
	<path d="M-39.3,33.6h7.4l0.1,3.8c0.8-2.9,3.1-4.3,6.6-4.3v6.4h-1.4c-1.7,0-3,0.4-3.9,1.3c-0.9,0.8-1.3,2.2-1.3,4.2v8.4h-7.5V38.3
		v-0.7V37v-0.5v-0.4c0-0.5,0-1,0-1.3C-39.3,34.4-39.2,33.9-39.3,33.6z"/>
	<path d="M-23.8,33.8h7.4l0.1,3.7c0.8-2.9,3.1-4.3,6.6-4.3v6.4h-1.4c-1.7,0-3,0.4-3.9,1.3c-0.9,0.8-1.3,2.2-1.3,4.2v8.4h-7.5V33.8z"
		/>
	<rect x="-8.1" y="33.8" width="7.4" height="19.6"/>
	<path d="M22.3,53.4v-0.9l0,0v-3.7c-0.9-1.8-1.2-3.8-1.2-6c0-1.9,0.3-3.5,0.9-5c-0.1-0.3-0.2-0.5-0.3-0.7c-0.5-1-1-1.7-1.7-2.2
		c-0.8-0.6-1.6-1.1-2.4-1.3c-0.3-0.1-0.5-0.2-0.7-0.2c-0.2,0-0.4-0.1-0.6-0.1l-1.3-0.2c-1.4,0-2.6,0.3-3.6,0.8S9.6,35.1,8.9,36v-1.2
		l0-0.9H1.5v19.6h7.5v-12c0-1.1,0.3-2,0.9-2.6c0.6-0.6,1.3-0.9,2.1-0.9c2,0,3.1,1.4,3.1,4.3v11.3H22.3z"/>
	<path d="M36.4,51.4c-0.6,0.4-1.4,0.7-2.3,1.1l-1.2,0.2h-1.4c-2.6,0-4.7-0.9-6.2-2.8c-1.5-1.9-2.3-4.2-2.3-7s0.8-5.1,2.3-6.9
		c0.7-0.8,1.6-1.5,2.7-2.1c1.2-0.5,2.4-0.7,3.6-0.7H33l1.1,0.2c0.4,0,0.9,0.2,1.4,0.6c1.1,0.5,2,1.4,2.6,2.7v-1.9v-0.9h7.3v17.6
		c0,3.4-1.1,5.9-3.4,7.4c-2.3,1.5-5.1,2.3-8.4,2.3c-2.7,0-5-0.5-6.8-1.5c-1.9-1-2.8-2.8-2.8-5.2h7c0,1.6,0.9,2.5,2.8,2.5
		c1.7,0,2.9-0.5,3.4-1.4c0.5-0.9,0.8-2.3,0.8-4.4v-1.5C37.7,50.3,37.1,50.9,36.4,51.4z M38,42.7c0-1.6-0.3-2.9-1-3.8
		c-0.6-0.9-1.5-1.4-2.7-1.4c-1.2,0-2.2,0.4-2.8,1.3c-0.7,0.9-1,2.2-1,4c0,1.6,0.3,2.9,0.9,4.1c0.7,1,1.5,1.6,2.6,1.6
		c2.7,0,4-1.8,4-5.4V42.7z"/>
	<path d="M63.8,43.4c0-1.9,0.4-3.7,1.3-5.3c0.9-1.6,2.2-2.8,3.9-3.7s3.8-1.3,6.1-1.3c1.7,0,3.3,0.2,4.7,0.6c1.4,0.4,2.5,1,3.5,1.9
		c1,0.9,1.8,2,2.5,3.3c0.6,1.4,0.9,2.8,0.9,4.5c0,2.5-0.6,4.5-1.7,6.1c-1.1,1.6-2.6,2.7-4.4,3.4c-1.8,0.7-3.7,1-5.5,1
		c-2.4,0-4.5-0.4-6.1-1.3c-1.6-0.9-2.9-2.2-3.9-3.8c-0.4-0.8-0.7-1.6-0.9-2.5c-0.1-0.5-0.2-1-0.2-1.4C63.8,44.5,63.8,44,63.8,43.4z
		 M79,43.5c0-4-1.3-6-3.9-6c-1.1,0-2,0.5-2.7,1.6c-0.7,1.1-1,2.5-1,4.4c0,4.1,1.2,6.2,3.7,6.2C77.7,49.6,79,47.6,79,43.5z"/>
	<path d="M107.4,37.1c-0.5-1-1-1.7-1.7-2.2c-0.8-0.6-1.6-1.1-2.4-1.3c-0.3-0.1-0.5-0.2-0.7-0.2c-0.2,0-0.4-0.1-0.6-0.1l-1.3-0.2
		c-1.4,0-2.6,0.3-3.6,0.8s-1.9,1.2-2.6,2.1v-1.2l0-0.9h-7.4v1.5v0.8v1v0.3c0,0.1,0,0.1,0,0.2v0.1c0.7,1.7,1.2,3.6,1.2,5.7
		c0,2.4-0.4,4.5-1.3,6.2v3.8h7.4v-12c0-1.1,0.3-2,0.9-2.6c0.6-0.6,1.3-0.9,2.1-0.9c2,0,3.1,1.4,3.1,4.3v11.3h7.4V40.3
		C108.1,39.1,107.9,38,107.4,37.1z"/>
	<path d="M47.1,33.8v4.7h3.8v8.9v1.1c0,0.9,0.1,1.6,0.4,2.3c0.2,0.7,0.6,1.3,1,1.7c1,1,2.5,1.6,4.7,1.6h1.6c1,0,2.4-0.1,4.1-0.3
		v-4.5l-0.9,0l-0.7,0l-0.8,0c-1-0.2-1.5-0.4-1.7-0.7c-0.2-0.3-0.3-1.1-0.3-2.3v-7.9h4.3v-4.7H47.1z"/>
	<g>
		<polygon points="58.3,30.4 58.3,25.2 50.9,28 50.9,30.4 		"/>
		<polygon points="-8.2,30.4 -8.2,25.2 -0.7,28 -0.8,30.4 		"/>
	</g>
</g>
<g>
	<rect y="7.1" width="16" height="1"/>
	<rect x="11.6" y="6.2" transform="matrix(0.7071 0.7071 -0.7071 0.7071 11.4995 -5.2698)" width="1" height="10"/>
	<rect x="11.6" y="-1.1" transform="matrix(0.7071 -0.7071 0.7071 0.7071 0.7972 9.7028)" width="1" height="10"/>
</g>
</svg>
