<?xml version="1.0" encoding="utf-8"?>
<!-- Generator: Adobe Illustrator 21.1.0, SVG Export Plug-In . SVG Version: 6.00 Build 0)  -->
<svg version="1.1" baseProfile="tiny" id="Layer_3" xmlns="http://www.w3.org/2000/svg" xmlns:xlink="http://www.w3.org/1999/xlink"
	 x="0px" y="0px" viewBox="0 0 16 16" xml:space="preserve">
<polygon fill-rule="evenodd" fill="#ED1F24" points="3.1,0 3,0 3,0 3.1,0 "/>
<path fill-rule="evenodd" d="M12,9c-0.8,0-1.5,0.3-2.1,0.8L7,8.3C7,8.2,7,8.1,7,8c0-0.1,0-0.2,0-0.3l2.9-1.5C10.5,6.7,11.2,7,12,7
	c1.7,0,3-1.3,3-3s-1.3-3-3-3S9,2.3,9,4c0,0.1,0,0.2,0,0.3L6.1,5.9C5.5,5.3,4.8,5,4,5C2.3,5,1,6.3,1,8s1.3,3,3,3
	c0.8,0,1.6-0.3,2.1-0.9L9,11.6c0,0.1,0,0.2,0,0.4c0,1.7,1.3,3,3,3s3-1.3,3-3S13.7,9,12,9z"/>
</svg>
