<?xml version="1.0" standalone="no"?> 
<!DOCTYPE svg PUBLIC "-//W3C//DTD SVG 1.1//EN" "http://www.w3.org/Graphics/SVG/1.1/DTD/svg11.dtd" >
<svg xmlns="http://www.w3.org/2000/svg">
<defs>
  <font id="bimber" horiz-adv-x="1792">
    <font-face font-family="bimber"
      units-per-em="1792" ascent="1792"
      descent="0" />
    <missing-glyph horiz-adv-x="0" />
    <glyph glyph-name="angle-down"
      unicode="&#xE000;"
      horiz-adv-x="737.8823529411765" d=" M0 1159.5294117647059L368.9411764705883 632.4705882352941L737.8823529411765 1159.5294117647059H0zM200.2823529411765 1054.1176470588234H537.5999999999999L368.9411764705883 811.6705882352941L200.2823529411765 1054.1176470588234z" />
    <glyph glyph-name="arrow-up"
      unicode="&#xE000F;"
      horiz-adv-x="1792" d=" M1596.5665882352941 858.6842352941178L948.7058823529412 1506.6503529411766V105.4117647058827H843.2941176470588V1506.6503529411766L195.4334117647059 858.6842352941178L120.8018823529412 933.3157647058825L896 1708.4084705882353L1671.1981176470586 933.2103529411766L1596.566588235294 858.6842352941178z" />
    <glyph glyph-name="angle-right"
      unicode="&#xE001;"
      horiz-adv-x="737.8823529411765" d=" M105.4117647058824 527.0588235294117L632.4705882352941 896L105.4117647058824 1264.9411764705883V527.0588235294117zM453.2705882352941 896L210.8235294117647 727.3411764705884V1064.6588235294116L453.2705882352941 896z" />
    <glyph glyph-name="angle-up"
      unicode="&#xE002;"
      horiz-adv-x="737.8823529411765" d=" M737.8823529411765 632.4705882352941L368.9411764705883 1159.5294117647059L0 632.4705882352941H737.8823529411765zM368.9411764705883 980.329411764706L537.5999999999999 737.8823529411766H200.2823529411765L368.9411764705883 980.329411764706z" />
    <glyph glyph-name="chevron-down"
      unicode="&#xE003;"
      horiz-adv-x="1792" d=" M1723.9039999999998 1257.035294117647L895.8945882352939 429.1312941176471L68.0959999999999 1257.035294117647L142.6221176470587 1331.561411764706L895.7891764705879 578.2889411764706L1649.272470588235 1331.6668235294119L1723.9039999999995 1257.035294117647z" />
    <glyph glyph-name="chevron-up"
      unicode="&#xE006;"
      horiz-adv-x="1792" d=" M1723.9039999999998 538.0216470588234L1649.377882352941 463.4955294117647L895.9999999999998 1216.7679999999998L142.7275294117645 463.4955294117647L68.2014117647057 538.0216470588234L895.9999999999998 1365.8202352941175L1723.9039999999998 538.0216470588234z" />
    <glyph glyph-name="caret-left"
      unicode="&#xE008;"
      horiz-adv-x="1792" d=" M1216 1344V448Q1216 422 1197 403T1152 384T1107 403L659 851Q640 870 640 896T659 941L1107 1389Q1126 1408 1152 1408T1197 1389T1216 1344z" />
    <glyph glyph-name="caret-right"
      unicode="&#xE009;"
      horiz-adv-x="1792" d=" M1152 896Q1152 870 1133 851L685 403Q666 384 640 384T595 403T576 448V1344Q576 1370 595 1389T640 1408T685 1389L1133 941Q1152 922 1152 896z" />
    <glyph glyph-name="arrow-right"
      unicode="&#xE00B;"
      horiz-adv-x="1792" d=" M1307.105882352941 1475.764705882353H0V316.2352941176471H1307.105882352941L1792 896L1307.105882352941 1475.764705882353zM1201.6941176470589 527.0588235294117H210.8235294117647V1264.9411764705883H1201.6941176470589L1517.929411764706 896L1201.6941176470589 527.0588235294117z" />
    <glyph glyph-name="arrow-down"
      unicode="&#xE00C;"
      horiz-adv-x="1792" d=" M1671.1981176470586 858.6842352941178L896 83.5915294117647L120.8018823529412 858.6842352941176L195.328 933.2103529411764L843.2941176470588 285.3496470588236V1686.5882352941176H948.7058823529412V285.3496470588236L1596.5665882352941 933.2103529411766L1671.1981176470588 858.6842352941178z" />
    <glyph glyph-name="arrow-left"
      unicode="&#xE00D;"
      horiz-adv-x="1792" d=" M0 896L484.8941176470587 316.2352941176471H1792V1475.764705882353H484.8941176470587L0 896zM274.0705882352941 896L590.3058823529411 1264.9411764705883H1581.1764705882351V527.0588235294117H590.3058823529411L274.0705882352941 896z" />
    <glyph glyph-name="comments"
      unicode="&#xE010;"
      horiz-adv-x="1792" d=" M1633.8823529411764 1792H158.1176470588235C70.9421176470588 1792 0 1721.057882352941 0 1633.8823529411766V579.7647058823529C0 492.5891764705882 70.9421176470588 421.6470588235295 158.1176470588235 421.6470588235295H210.8235294117647V-10.752L704.9938823529411 421.6470588235295H1633.8823529411764C1721.0578823529409 421.6470588235295 1792 492.5891764705882 1792 579.7647058823529V1633.8823529411766C1792 1721.057882352941 1721.0578823529409 1792 1633.8823529411764 1792zM1686.5882352941176 579.7647058823529C1686.5882352941176 550.7764705882353 1662.9759999999999 527.0588235294117 1633.8823529411764 527.0588235294117H665.3590588235293L316.235294117647 221.5755294117648V527.0588235294117H158.1176470588235C129.024 527.0588235294117 105.4117647058823 550.7764705882353 105.4117647058823 579.7647058823529V1633.8823529411766C105.4117647058823 1662.8705882352942 129.024 1686.5882352941176 158.1176470588235 1686.5882352941176H1633.8823529411764C1662.9759999999999 1686.5882352941176 1686.5882352941176 1662.8705882352942 1686.5882352941176 1633.8823529411766V579.7647058823529z" />
    <glyph glyph-name="shares"
      unicode="&#xE011;"
      horiz-adv-x="1792" d=" M1423.0588235294117 527.0588235294117C1349.270588235294 527.0588235294117 1275.4823529411763 495.4352941176471 1233.3176470588235 442.7294117647059L611.3882352941176 811.6705882352941C621.929411764706 832.7529411764707 632.4705882352941 864.3764705882353 632.4705882352941 896C632.4705882352941 927.6235294117648 621.929411764706 959.2470588235294 611.3882352941176 980.329411764706L1222.7764705882353 1349.270588235294C1275.4823529411763 1296.5647058823529 1349.270588235294 1264.9411764705883 1423.0588235294117 1264.9411764705883C1570.635294117647 1264.9411764705883 1686.5882352941176 1380.894117647059 1686.5882352941176 1528.4705882352941S1570.635294117647 1792 1423.0588235294117 1792S1159.5294117647059 1676.0470588235294 1159.5294117647059 1528.4705882352941C1159.5294117647059 1496.8470588235296 1170.070588235294 1465.2235294117647 1180.6117647058823 1444.1411764705883L558.6823529411764 1075.2C516.5176470588235 1127.9058823529413 442.7294117647059 1159.5294117647059 368.9411764705883 1159.5294117647059C221.364705882353 1159.5294117647059 105.4117647058824 1043.5764705882352 105.4117647058824 896S221.364705882353 632.4705882352941 368.9411764705883 632.4705882352941C442.7294117647059 632.4705882352941 516.5176470588235 664.094117647059 558.6823529411764 716.8000000000002L1170.070588235294 347.8588235294119C1159.5294117647059 316.2352941176471 1148.9882352941177 295.1529411764707 1148.9882352941177 263.5294117647059C1148.9882352941177 115.9529411764706 1264.9411764705883 0 1412.5176470588235 0S1676.0470588235294 115.9529411764706 1676.0470588235294 263.5294117647059S1570.635294117647 527.0588235294117 1423.0588235294117 527.0588235294117zM1423.0588235294117 1686.5882352941176C1507.3882352941177 1686.5882352941176 1581.1764705882351 1612.8 1581.1764705882351 1528.4705882352941S1507.3882352941177 1370.3529411764707 1423.0588235294117 1370.3529411764707S1264.9411764705883 1444.1411764705883 1264.9411764705883 1528.4705882352941S1338.7294117647057 1686.5882352941176 1423.0588235294117 1686.5882352941176zM368.9411764705883 737.8823529411766C284.6117647058824 737.8823529411766 210.8235294117647 811.6705882352941 210.8235294117647 896S284.6117647058824 1054.1176470588234 368.9411764705883 1054.1176470588234S527.0588235294117 980.329411764706 527.0588235294117 896S453.2705882352941 737.8823529411766 368.9411764705883 737.8823529411766zM1423.0588235294117 105.4117647058824C1338.7294117647057 105.4117647058824 1264.9411764705883 179.2000000000001 1264.9411764705883 263.5294117647059S1338.7294117647057 421.6470588235295 1423.0588235294117 421.6470588235295S1581.1764705882351 347.8588235294119 1581.1764705882351 263.5294117647059S1507.3882352941177 105.4117647058824 1423.0588235294117 105.4117647058824z" />
    <glyph glyph-name="mail"
      unicode="&#xE012;"
      horiz-adv-x="1792" d=" M0 1581.1764705882354V210.8235294117649H1792V1581.1764705882354H0zM895.3675294117646 757.1727058823531L168.448 1475.764705882353H1625.238588235294L895.3675294117646 757.1727058823531zM606.6447058823529 894.313411764706L105.4117647058824 400.7755294117647V1389.8541176470587L606.6447058823529 894.3134117647057zM681.5924705882353 820.2089411764707L895.156705882353 609.0691764705884L1105.558588235294 816.3087058823529L1611.5350588235294 316.2352941176471H169.8183529411765L681.5924705882354 820.2089411764705zM1180.7171764705881 890.2023529411765L1686.5882352941176 1388.2729411764706V390.3397647058823L1180.7171764705881 890.2023529411765z" />
    <glyph glyph-name="user"
      unicode="&#xE013;"
      horiz-adv-x="1792" d=" M708.4 1086.0500000000002L708.4 1086.0500000000002L708.4 1086.0500000000002z M1271.55 518.3500000000001C1226.4 534.4500000000003 1161.65 540.05 1120.3500000000001 549.1500000000001C1096.55 554.4000000000001 1061.9 567.7000000000003 1050.3500000000001 581.3500000000001C1038.8 595.3500000000001 1045.8 724.5 1045.8 724.5S1067.15 758.1000000000001 1078.7 787.5S1102.85 897.4 1102.85 897.4S1126.6499999999999 897.4 1135.0499999999997 939.05C1144.1499999999999 984.55 1158.1499999999999 1003.45 1156.3999999999999 1037.4C1154.6499999999999 1068.9 1138.2 1070.65 1136.45 1070.65L1136.45 1070.65C1136.45 1070.65 1153.6 1118.25 1156.05 1219.0500000000002C1158.8500000000001 1338.4 1067.5 1456 896 1456S633.5 1338.75 635.9499999999999 1219.4C638.05 1118.95 655.55 1071 655.55 1071L655.55 1071C653.8 1071 637.35 1069.25 635.6 1037.75C633.85 1003.8 648.1999999999999 985.6 656.9499999999999 940.1C665.35 898.4499999999999 689.1499999999999 898.1 689.1499999999999 898.1S701.7499999999999 817.25 713.3 787.8500000000001C724.85 758.1000000000001 746.1999999999999 724.8500000000001 746.1999999999999 724.8500000000001S753.1999999999999 595.7000000000003 741.6499999999999 581.7000000000003C730.0999999999999 567.7000000000003 695.4499999999999 554.7500000000002 671.6499999999999 549.5000000000002C629.9999999999999 540.4000000000001 565.5999999999999 534.4500000000003 520.4499999999999 518.3500000000004C475.3000000000001 502.25 336 448 336 336H896H1456C1456 448 1316.7 502.25 1271.55 518.3500000000001zM896 392H415.45C422.45 402.5 431.9000000000001 409.8500000000002 444.1500000000001 418.6000000000002C468.65 436.4500000000003 500.5 452.9000000000001 539 466.2000000000003C562.8000000000001 474.6000000000001 597.4499999999999 480.2000000000003 627.9 484.7500000000002C647.85 487.9000000000001 666.75 490.7000000000003 683.5500000000001 494.5500000000002C695.45 497.3500000000004 756.3500000000001 512.0500000000002 784.3500000000001 545.6500000000003C800.1000000000001 564.5500000000002 804.6500000000001 590.1000000000004 803.95 658.7000000000003C803.6000000000001 693.7000000000003 801.8500000000001 726.2500000000005 801.8500000000001 727.6500000000003L801.1500000000001 742.3500000000004L793.1000000000001 754.6000000000004C787.8500000000001 762.6500000000003 772.8000000000001 787.8500000000003 765.1000000000001 808.1500000000003C758.8000000000001 824.6000000000003 749.0000000000001 875.3500000000003 744.1000000000001 906.5000000000005C744.1000000000001 906.5000000000005 745.5000000000001 903.0000000000005 742.3500000000001 919.4500000000002C739.2 935.9000000000002 712.95 934.5000000000005 709.45 947.4500000000002C706.3000000000001 960.0500000000002 703.15 971.6000000000003 694.4 1011.1500000000002C685.65 1050.7000000000003 704.2 1050.3500000000001 708.0500000000001 1067.8500000000001C710.15 1078.7000000000003 708.0500000000001 1087.8000000000002 708.0500000000001 1088.15L708.0500000000001 1088.15C707 1091.65 693.7 1135.0500000000002 691.6000000000001 1220.1000000000004C690.5500000000001 1266.3000000000002 707.7 1309.7000000000003 739.9000000000001 1342.2500000000002C777.0000000000001 1380.0500000000002 830.9000000000001 1400.0000000000002 895.6500000000001 1400.0000000000002C962.15 1400.0000000000002 1014.65 1380.0500000000002 1051.7500000000002 1342.2500000000002C1083.9500000000003 1309.7000000000003 1101.1000000000004 1266.3000000000002 1100.0500000000002 1220.1000000000004C1098.3000000000002 1135.4000000000003 1085.0000000000002 1092.0000000000005 1083.6000000000004 1088.1500000000003L1083.6000000000004 1088.1500000000003C1083.6000000000004 1087.8000000000002 1081.5000000000002 1082.2000000000003 1082.2000000000003 1069.9500000000003C1082.9000000000003 1051.0500000000002 1106.0000000000005 1050.7000000000003 1097.2500000000005 1011.1500000000004C1088.5000000000005 971.6000000000003 1085.3500000000004 960.0500000000002 1082.2000000000003 947.4500000000004C1079.0500000000004 934.8500000000004 1052.4500000000003 935.9000000000004 1049.3000000000004 919.4500000000004C1046.1500000000005 903.0000000000005 1047.5500000000004 906.5000000000005 1047.5500000000004 906.5000000000005C1042.6500000000005 875.3500000000005 1032.8500000000004 824.6000000000005 1026.5500000000004 808.1500000000003C1018.5000000000005 787.8500000000003 1003.4500000000004 762.6500000000003 998.5500000000004 754.6000000000004L990.5000000000005 742.3500000000004L989.8000000000004 727.6500000000003C989.8000000000004 726.2500000000005 988.0500000000004 693.7000000000003 987.7000000000004 658.7000000000003C987.0000000000005 590.1000000000004 991.5500000000004 564.5500000000004 1007.3000000000004 545.6500000000003C1035.3000000000004 512.4000000000003 1096.2000000000003 497.3500000000004 1108.1000000000004 494.5500000000002C1124.9000000000005 490.7000000000003 1143.8000000000004 487.9000000000003 1163.7500000000005 484.7500000000002C1194.2000000000003 480.2000000000003 1228.8500000000004 474.6000000000004 1252.6500000000003 466.2000000000003C1291.1500000000003 452.5500000000002 1323.3500000000004 436.1000000000002 1347.5000000000005 418.2500000000003C1359.7500000000005 409.5000000000003 1369.2000000000003 402.1500000000001 1376.2000000000003 391.6500000000001L896 392L896 392z" />
    <glyph glyph-name="views"
      unicode="&#xE014;"
      horiz-adv-x="1792" d=" M1788.310588235294 862.5844705882354C1652.961882352941 1206.964705882353 1294.2456470588234 1438.4489411764707 896 1438.4489411764707S139.0381176470588 1206.964705882353 3.6894117647059 862.5844705882354C-1.1595294117647 850.251294117647 -1.1595294117647 836.4423529411765 3.6894117647059 824.1091764705883C139.1435294117647 479.6235294117648 497.7543529411765 248.1392941176471 896 248.1392941176471S1652.8564705882352 479.5181176470589 1788.310588235294 824.0037647058824C1793.2649411764705 836.4423529411765 1793.2649411764705 850.1458823529412 1788.310588235294 862.5844705882354zM896 353.5510588235295C548.352 353.5510588235295 235.1736470588235 549.5115294117647 109.7336470588236 843.2941176470589C235.0682352941177 1137.076705882353 548.2465882352941 1333.0371764705883 896 1333.0371764705883S1556.9317647058822 1137.076705882353 1682.2663529411764 843.2941176470589C1556.8263529411763 549.6169411764706 1243.648 353.5510588235295 896 353.5510588235295zM896 1227.3091764705882C684.2277647058822 1227.3091764705882 511.9849411764706 1055.0663529411765 511.9849411764706 843.2941176470589S684.2277647058822 459.2790588235293 896.105411764706 459.2790588235293C1107.7722352941175 459.2790588235293 1280.1204705882353 631.5218823529412 1280.1204705882353 843.2941176470589S1107.7722352941178 1227.3091764705882 896.0000000000001 1227.3091764705882zM896 564.6908235294118C742.3096470588234 564.6908235294118 617.291294117647 689.7091764705883 617.291294117647 843.2941176470589S742.4150588235294 1121.8974117647058 896 1121.8974117647058C1049.5849411764707 1121.8974117647058 1174.603294117647 996.8790588235294 1174.603294117647 843.2941176470589S1049.6903529411763 564.6908235294118 896 564.6908235294118zM896 986.3378823529412C817.1519999999999 986.3378823529412 752.9562352941176 922.142117647059 752.9562352941176 843.2941176470589S817.1519999999999 700.2503529411765 896 700.2503529411765S1039.0437647058823 764.446117647059 1039.0437647058823 843.2941176470589S974.8479999999998 986.3378823529412 896 986.3378823529412zM896 805.662117647059C875.2338823529412 805.662117647059 858.368 822.5280000000001 858.368 843.2941176470589S875.2338823529412 880.9261176470588 896 880.9261176470588S933.6319999999998 864.0602352941177 933.6319999999998 843.2941176470589S916.7661176470586 805.662117647059 896 805.662117647059z" />
    <glyph glyph-name="popular"
      unicode="&#xE015;"
      horiz-adv-x="1792" d=" M1754.7896470588232 1052.3256470588235H1098.6014117647057L895.9999999999998 1676.363294117647L693.293176470588 1052.3256470588235H37.2103529411763L567.9585882352939 666.7294117647059L365.3571764705881 42.6917647058826L895.9999999999998 428.3934117647059L1426.7482352941174 42.6917647058826L1224.1468235294114 666.7294117647061L1754.7896470588232 1052.3256470588235zM1226.2550588235292 318.6597647058825L896 558.7877647058824L565.7449411764705 318.7651764705884L691.9228235294117 707.2075294117649L361.6677647058824 946.9138823529414H769.9275294117647L896 1335.2508235294117L1022.0724705882352 946.9138823529414H1430.3322352941175L1100.0771764705883 707.102117647059L1226.2550588235292 318.6597647058825z" />
    <glyph glyph-name="search"
      unicode="&#xE016;"
      horiz-adv-x="1792" d=" M1750.2569411764705 119.3261176470589L1204.961882352941 664.6211764705884C1307.7383529411763 784.4743529411766 1370.3529411764705 939.8512941176472 1370.3529411764705 1109.7750588235294C1370.3529411764705 1487.5708235294119 1062.9722352941176 1794.9515294117646 685.1764705882352 1794.9515294117646C502.1816470588236 1794.9515294117646 330.0442352941176 1723.6931764705882 200.4931764705883 1594.3529411764705C71.1529411764706 1464.9072941176469 -0.1054117647059 1292.769882352941 0 1109.7750588235294C0 731.979294117647 307.380705882353 424.5985882352941 685.1764705882352 424.5985882352941C855.1002352941176 424.5985882352941 1010.582588235294 487.213176470588 1130.4357647058823 589.9896470588233L1675.7308235294117 44.6945882352941L1750.2569411764705 119.3261176470589zM685.1764705882352 530.0103529411765C365.568 530.0103529411765 105.4117647058824 790.0611764705884 105.4117647058824 1109.7750588235294C105.3063529411765 1264.7303529411765 165.6018823529412 1410.304 275.124705882353 1519.7214117647059C384.5421176470589 1629.2442352941177 530.2211764705883 1689.5397647058824 685.1764705882352 1689.5397647058824C1004.7849411764706 1689.5397647058824 1264.9411764705883 1429.4889411764707 1264.9411764705883 1109.7750588235294C1264.9411764705883 790.1665882352942 1004.7849411764706 530.0103529411765 685.1764705882352 530.0103529411765z" />
    <glyph glyph-name="latest"
      unicode="&#xE017;"
      horiz-adv-x="1792" d=" M913.4983529411764 1792C419.4334117647059 1792 17.4983529411765 1390.0649411764707 17.4983529411765 896S419.4334117647059 0 913.4983529411764 0S1809.4983529411763 401.9350588235295 1809.4983529411763 896C1809.4983529411763 1390.0649411764707 1407.563294117647 1792 913.4983529411764 1792zM913.4983529411764 105.4117647058824C477.515294117647 105.4117647058824 122.9101176470589 460.0169411764707 122.9101176470589 896S477.515294117647 1686.5882352941176 913.4983529411764 1686.5882352941176S1704.0865882352941 1331.9830588235295 1704.0865882352941 896S1349.4814117647059 105.4117647058824 913.4983529411764 105.4117647058824zM1475.764705882353 843.2941176470589V737.8823529411766H843.2941176470588V1264.9411764705883H948.7058823529412V843.2941176470589H1475.764705882353z" />
    <glyph glyph-name="angle-left"
      unicode="&#xE01A;"
      horiz-adv-x="737.8823529411765" d=" M632.4705882352941 1264.9411764705883L105.4117647058824 896L632.4705882352941 527.0588235294117V1264.9411764705883zM527.0588235294117 1064.6588235294116V727.3411764705882L284.6117647058824 896L527.0588235294117 1064.6588235294116z" />
    <glyph glyph-name="close"
      unicode="&#xE01B;"
      horiz-adv-x="1792" d=" M970.5261176470588 896L1671.0927058823531 195.4334117647059L1596.5665882352941 120.9072941176469L896 821.4738823529411L195.4334117647059 120.9072941176469L120.9072941176471 195.4334117647059L821.4738823529411 896L120.8018823529412 1596.5665882352941L195.328 1671.092705882353L896 970.5261176470588L1596.5665882352941 1671.092705882353L1671.0927058823531 1596.5665882352941L970.5261176470588 896z" />
    <glyph glyph-name="fire"
      unicode="&#xE01C;"
      horiz-adv-x="1792" d=" M1508.7585882352942 1579.9115294117646H754.8536470588235L509.1388235294118 840.553411764706H684.7548235294117L472.8771764705883 202.601411764706L1472.4969411764707 1051.2715294117647H1166.3811764705883L1508.7585882352944 1579.9115294117648zM1185.5661176470587 945.8597647058826L691.5011764705881 526.4263529411764L830.8555294117647 945.8597647058822H655.3449411764706L830.8555294117647 1474.4997647058822H1314.9063529411765L972.5289411764704 945.8597647058822H1185.5661176470587z" />
    <glyph glyph-name="spinner"
      unicode="&#xE01D;"
      horiz-adv-x="1792" d=" M1512 952H1232C1201.2 952 1176 926.8 1176 896S1201.2 840 1232 840H1512C1542.8 840 1568 865.1999999999999 1568 896S1542.8 952 1512 952z M616 896C616 926.8 590.8000000000001 952 560 952H280C249.2 952 224 926.8 224 896S249.2 840 280 840H560C590.8000000000001 840 616 865.1999999999999 616 896z M896 616C865.1999999999999 616 840 590.8 840 560V280C840 249.2000000000001 865.1999999999999 224 896 224S952 249.2000000000001 952 280V560C952 590.8 926.8 616 896 616z M896 1568C865.1999999999999 1568 840 1542.8 840 1512V1232C840 1201.1999999999998 865.1999999999999 1176 896 1176S952 1201.1999999999998 952 1232V1512C952 1542.8 926.8 1568 896 1568z M1138.55 1036C1153.95 1009.05 1188.25 999.95 1215.2 1015.35L1457.75 1155.35C1484.7 1170.75 1493.8 1205.05 1478.3999999999999 1232S1428.7 1268.0500000000002 1401.75 1252.65L1159.2 1112.65C1132.25 1096.9 1123.1499999999999 1062.9499999999998 1138.55 1036z M653.4499999999999 756C638.05 782.9499999999999 603.75 792.0500000000001 576.8 776.6499999999999L334.25 636.6499999999999C307.3 621.25 298.2 586.95 313.5999999999999 560S363.3 523.95 390.2499999999999 539.3500000000001L632.7999999999998 679.3500000000001C659.75 695.1000000000001 668.85 729.05 653.4499999999999 756z M1112.6499999999999 633.1499999999999C1097.25 660.0999999999999 1062.95 669.2 1036 653.7999999999997S999.95 604.0999999999999 1015.3500000000003 577.1499999999999L1155.3500000000001 334.5999999999999C1170.75 307.6499999999999 1205.05 298.5499999999998 1232 313.9500000000001C1258.95 329.3499999999999 1268.05 363.6499999999999 1252.6499999999999 390.5999999999999L1112.6499999999999 633.1499999999999z M636.65 1457.4C621.25 1484.35 586.95 1493.45 560 1478.0500000000002C533.0500000000001 1462.65 523.9499999999999 1428.35 539.35 1401.4L679.35 1158.8500000000001C694.75 1131.9 729.05 1122.8000000000002 756 1138.2S792.0500000000001 1187.9 776.65 1214.8500000000001L636.65 1457.4z M1036 1138.5500000000002C1062.95 1123.15 1096.8999999999999 1132.25 1112.6499999999999 1159.2L1252.6499999999999 1401.75C1268.0499999999997 1428.7 1258.95 1462.65 1232 1478.4C1205.05 1493.8000000000002 1171.1000000000001 1484.7 1155.3500000000001 1457.75L1015.3500000000003 1215.1999999999998C999.95 1188.25 1009.05 1153.9499999999998 1036 1138.5500000000002z M756 653.45C729.0500000000001 668.8499999999999 695.1 659.75 679.35 632.8L539.35 390.25C523.9499999999999 363.3 533.05 329.3500000000002 560 313.6000000000002C586.9499999999999 298.2000000000003 620.9 307.3 636.65 334.25L776.65 576.8C792.0500000000001 603.75 782.9499999999999 638.05 756 653.45z M1457.3999999999999 636.6499999999999L1214.85 776.6499999999999C1187.8999999999999 792.0499999999998 1153.95 782.9499999999999 1138.2 756C1122.8 729.05 1131.8999999999999 695.1000000000001 1158.85 679.3500000000001L1401.3999999999999 539.3500000000001C1428.35 523.9500000000003 1462.2999999999997 533.05 1478.0499999999997 560C1493.45 586.95 1484.3500000000001 620.8999999999999 1457.3999999999999 636.6499999999999z M334.6 1155.35L577.1499999999999 1015.35C604.0999999999999 999.95 638.05 1009.05 653.8 1036S660.1 1096.9 633.1499999999999 1112.65L390.5999999999999 1252.65C363.6499999999999 1268.0500000000002 329.7 1258.95 313.95 1232C298.55 1205.0500000000002 307.6500000000001 1171.1 334.6 1155.35z" />
    <glyph glyph-name="play"
      unicode="&#xE01E;"
      horiz-adv-x="1792" d=" M316.2352941176471 1508.2315294117648V283.5576470588235L1540.9091764705881 898.8461176470588L316.2352941176471 1508.2315294117645zM421.6470588235294 1337.8861176470589L1305.2084705882353 898.3190588235295L421.6470588235294 454.430117647059V1337.8861176470589z" />
    <glyph glyph-name="more-horizontal"
      unicode="&#xE01F;"
      horiz-adv-x="1792" d=" M476 1036C398.993 1036 336 973.007 336 896S398.993 756 476 756S616 818.9929999999999 616 896S553.0070000000001 1036 476 1036zM1316 1036C1238.993 1036 1176 973.007 1176 896S1238.993 756 1316 756S1456 818.9929999999999 1456 896S1393.007 1036 1316 1036zM896 1036C818.9929999999999 1036 756 973.007 756 896S818.9929999999999 756 896 756S1036 818.9929999999999 1036 896S973.007 1036 896 1036z" />
    <glyph glyph-name="more-vertical"
      unicode="&#xE020;"
      horiz-adv-x="1792" d=" M1036 1316C1036 1393.007 973.007 1456 896 1456S756 1393.007 756 1316S818.9929999999999 1176 896 1176S1036 1238.993 1036 1316zM1036 476C1036 553.0070000000001 973.007 616 896 616S756 553.0070000000001 756 476S818.9929999999999 336 896 336S1036 398.993 1036 476zM1036 896C1036 973.007 973.007 1036 896 1036S756 973.007 756 896S818.9929999999999 756 896 756S1036 818.9929999999999 1036 896z" />
    <glyph glyph-name="plus"
      unicode="&#xE021;"
      horiz-adv-x="1792" d=" M1686.5882352941176 843.2941176470589H948.7058823529412V105.4117647058824H843.2941176470588V843.2941176470589H105.4117647058824V948.7058823529412H843.2941176470588V1686.5882352941176H948.7058823529412V948.7058823529412H1686.5882352941176V843.2941176470589z" />
    <glyph glyph-name="nsfw"
      unicode="&#xE022;"
      horiz-adv-x="1792" d=" M1581.1764705882351 1684.9016470588235C1581.1764705882351 1510.550588235294 1439.2922352941175 1368.6663529411765 1264.9411764705883 1368.6663529411765S948.7058823529412 1510.550588235294 948.7058823529412 1684.9016470588235H843.2941176470588C843.2941176470588 1510.550588235294 701.4098823529412 1368.6663529411765 527.0588235294117 1368.6663529411765S210.8235294117647 1510.550588235294 210.8235294117647 1684.9016470588235H105.4117647058824V963.1472941176472C105.4117647058824 393.396705882353 843.5049411764704 119.8531764705883 875.0230588235294 108.574117647059L892.5214117647059 102.1440000000002L910.1251764705881 108.2578823529414C941.748705882353 119.1152941176472 1686.5882352941176 380.958117647059 1686.5882352941176 966.098823529412V1684.9016470588235H1581.1764705882351zM210.8235294117647 963.252705882353V1406.4037647058824C288.0903529411765 1318.7011764705883 401.3025882352941 1263.2545882352942 527.0588235294117 1263.2545882352942C653.131294117647 1263.2545882352942 765.9218823529411 1319.4390588235294 843.2941176470588 1407.563294117647V236.0169411764705C668.4159999999999 314.7595294117646 210.8235294117647 559.3148235294118 210.8235294117647 963.2527058823528zM1581.1764705882351 966.0988235294118C1581.1764705882351 555.52 1128.6437647058824 316.4461176470589 948.7058823529412 237.492705882353V1407.6687058823532C1026.0781176470587 1319.5444705882355 1138.868705882353 1263.3600000000001 1264.9411764705883 1263.3600000000001C1390.6974117647057 1263.3600000000001 1503.9096470588233 1318.7011764705885 1581.1764705882351 1406.4037647058826V966.098823529412z" />
    <glyph glyph-name="camera"
      unicode="&#xE023;"
      horiz-adv-x="1792" d=" M675.5 812C675.5 690.2212126623101 774.2212126623101 591.5 896 591.5C1017.7787873376898 591.5 1116.5 690.2212126623101 1116.5 812C1116.5 933.7787873376898 1017.7787873376898 1032.5 896 1032.5C774.2212126623101 1032.5 675.5 933.7787873376898 675.5 812z M1540 1456H1232L1120 1568H672L560 1456H252C174.678 1456 112 1393.3220000000001 112 1316V364C112 286.6780000000001 174.678 224 252 224H1540C1617.322 224 1680 286.6780000000001 1680 364V1316C1680 1393.3220000000001 1617.322 1456 1540 1456zM896 420C679.5075 420 504 595.5074999999999 504 812S679.5075 1204 896 1204S1288 1028.4924999999998 1288 812S1112.4925 420 896 420z" />
    <glyph glyph-name="gallery"
      unicode="&#xE024;"
      horiz-adv-x="1792" d=" M1456 1433.6C1400 1444.8 1321.6000000000001 1500.8 1299.2 1556.8L1288 1579.2C1254.3999999999999 1635.2 1187.2 1680 1120 1680H672C604.8000000000001 1680 537.6 1635.2 515.1999999999999 1579.2L492.8000000000001 1556.8C470.4 1500.8 403.2 1444.8 336 1433.6L112 1366.4C44.8 1355.2 0 1299.1999999999998 0 1232V336C0 268.8 44.8 224 112 224H1680C1747.2 224 1792 268.8 1792 336V1232C1792 1299.1999999999998 1747.2 1355.2 1680 1366.4L1456 1433.6zM896 336C582.4 336 336 582.3999999999999 336 896S582.4 1456 896 1456S1456 1209.6 1456 896S1209.6000000000001 336 896 336z" />
    <glyph glyph-name="cart"
      unicode="&#xE026;"
      horiz-adv-x="1792" d=" M289.8823529411765 474.3529411764707C188.16 474.3529411764707 105.4117647058824 391.6047058823531 105.4117647058824 289.8823529411766S188.16 105.4117647058824 289.8823529411765 105.4117647058824S474.3529411764706 188.1600000000001 474.3529411764706 289.8823529411766S391.6047058823529 474.3529411764707 289.8823529411765 474.3529411764707zM289.8823529411765 210.8235294117649C246.2418823529412 210.8235294117649 210.8235294117647 246.3472941176472 210.8235294117647 289.8823529411766S246.2418823529412 368.9411764705883 289.8823529411765 368.9411764705883S368.9411764705883 333.417411764706 368.9411764705883 289.8823529411766S333.5228235294118 210.8235294117649 289.8823529411765 210.8235294117649zM1185.8823529411764 474.3529411764707C1084.1599999999999 474.3529411764707 1001.4117647058824 391.6047058823531 1001.4117647058824 289.8823529411766S1084.1599999999999 105.4117647058824 1185.8823529411764 105.4117647058824S1370.3529411764705 188.1600000000001 1370.3529411764705 289.8823529411766S1287.6047058823528 474.3529411764707 1185.8823529411764 474.3529411764707zM1185.8823529411764 210.8235294117649C1142.241882352941 210.8235294117649 1106.8235294117646 246.3472941176472 1106.8235294117646 289.8823529411766S1142.241882352941 368.9411764705883 1185.8823529411764 368.9411764705883S1264.9411764705883 333.417411764706 1264.9411764705883 289.8823529411766S1229.5228235294117 210.8235294117649 1185.8823529411764 210.8235294117649zM1409.4607058823528 1581.1764705882354L1377.6263529411765 1370.3529411764707H-7.8004705882353L110.0498823529412 523.2640000000001H1365.8202352941178L1475.2376470588235 1309.952L1500.114823529412 1475.764705882353H1792V1581.1764705882354H1409.4607058823528zM1362.5524705882353 1264.9411764705883L1347.9002352941177 1159.5294117647059H127.8644705882354L113.2122352941178 1264.9411764705883H1362.5524705882353zM201.7581176470588 628.6757647058826L142.6221176470588 1054.1176470588234H1333.2479999999998L1274.1119999999999 628.6757647058826H201.7581176470588z" />
    <glyph glyph-name="notification"
      unicode="&#xE027;"
      horiz-adv-x="1792" d=" M1614.0649411764705 303.058823529412C1612.5891764705882 304.4291764705884 1475.764705882353 439.4616470588237 1475.764705882353 641.4305882352942V988.446117647059C1475.764705882353 1315.328 1215.6084705882351 1581.1764705882354 896 1581.1764705882354S316.2352941176471 1315.3280000000002 316.2352941176471 988.446117647059V641.4305882352942C316.2352941176471 445.2592941176472 178.5675294117647 303.7967058823531 177.3025882352941 302.4263529411765L88.4404705882353 212.5101176470589H1707.2489411764702L1614.0649411764703 303.058823529412zM321.716705882353 317.9218823529414C368.5195294117647 390.866823529412 421.6470588235294 503.8682352941175 421.6470588235294 641.4305882352942V988.446117647059C421.6470588235294 1257.140705882353 634.4734117647058 1475.7647058823532 896 1475.7647058823532S1370.3529411764705 1257.1407058823531 1370.3529411764705 988.446117647059V641.4305882352942C1370.3529411764705 502.2870588235296 1422.531764705882 390.2343529411767 1469.2291764705883 317.9218823529414H321.7167058823531zM948.7058823529412 1581.1764705882354H843.2941176470588V1686.5882352941176H948.7058823529412V1581.1764705882354zM948.7058823529412 210.8235294117649H1054.1176470588234C1054.1176470588234 123.6480000000002 983.1755294117646 52.7058823529412 896 52.7058823529412S737.8823529411765 123.6480000000002 737.8823529411765 210.8235294117649H843.2941176470588C843.2941176470588 181.7298823529413 867.0117647058822 158.1176470588237 896 158.1176470588237S948.7058823529412 181.7298823529413 948.7058823529412 210.8235294117649z" />
    <glyph glyph-name="users"
      unicode="&#xE028;"
      horiz-adv-x="1792" d=" M896 1400L896 1400L896 1400z M1222.2 620.2C1174.95 636.6499999999999 1123.85 637.7 1076.6 654.1499999999999C1062.2499999999998 659.0499999999997 1033.8999999999999 665 1027.95 681.45C1022.35 697.55 1022.35 716.45 1021.3 733.25C1020.6000000000003 746.55 1020.25 759.8500000000001 1020.25 773.1499999999999C1020.25 781.8999999999999 1042.6499999999999 800.4499999999999 1047.55 808.5C1066.45 840 1068.2 882.3500000000001 1071.7 918.05C1102.1499999999999 909.65 1106 966 1111.25 983.15C1115.1000000000001 995.05 1138.55 1076.95 1102.1499999999999 1065.75C1110.8999999999999 1081.15 1114.3999999999999 1100.0500000000002 1116.85 1117.1999999999998C1123.85 1162 1126.6499999999999 1211 1112.9999999999998 1254.75C1084.6499999999996 1345.75 997.4999999999998 1396.85 905.4499999999998 1399.65C811.9999999999998 1402.8000000000002 718.1999999999998 1358 683.1999999999998 1267.3500000000001C666.3999999999997 1223.25 667.7999999999997 1175.3000000000002 673.3999999999997 1129.1000000000001C675.8499999999997 1108.1000000000001 679.3499999999997 1084.65 689.8499999999997 1065.75C655.8999999999997 1075.9 674.0999999999997 1003.8000000000002 677.9499999999997 991.2C683.5499999999996 973.3500000000003 688.4499999999997 909.3 720.2999999999996 918.05C723.0999999999997 889.6999999999999 726.2499999999995 860.6500000000001 733.9499999999997 833C739.1999999999997 814.4499999999999 750.0499999999996 798.6999999999999 762.6499999999996 784.3500000000001C768.9499999999997 777.3500000000001 772.0999999999996 776.6500000000001 771.7499999999995 767.55C771.3999999999996 740.25 772.0999999999996 710.8500000000001 765.0999999999996 684.25C758.0999999999996 657.6499999999999 699.6499999999996 646.45 676.1999999999996 641.55C613.1999999999996 628.6000000000001 555.0999999999996 622.6500000000001 502.5999999999996 583.45C441.35 538.3 409.5 467.95 409.5 392C701.0500000000001 392 992.6000000000003 392 1284.1499999999999 392C1317.0499999999997 392 1349.6 392 1382.5 392C1382.5 495.25 1320.2 586.25 1222.2 620.2C1183 633.8500000000001 1261.75 606.55 1222.2 620.2zM514.85 519.3999999999999C534.4499999999999 540.0499999999997 559.3 558.25 586.25 568.3999999999999C623 582.3999999999999 664.65 581.7 702.8000000000001 591.5C734.3000000000001 599.55 773.5 612.1499999999999 798 634.8999999999999C820.4 655.8999999999999 822.85 688.0999999999999 824.9499999999999 717.1499999999999C826.6999999999999 741.6499999999999 826.35 765.7999999999997 826.35 790.2999999999998C826.35 807.4499999999998 806.4 817.2499999999998 796.6 830.8999999999999C780.85 852.25 780.15 884.0999999999999 777 909.6499999999997C775.6 920.85 775.25 935.2 765.8000000000001 942.8999999999997C755.3000000000001 951.3 747.6000000000001 955.85 742.3500000000001 969.1499999999997C735.3500000000001 987.35 732.9000000000001 1006.95 727.3000000000001 1025.85C723.8000000000001 1038.1 736.0500000000001 1049.6499999999999 740.95 1059.7999999999997C750.0500000000001 1078.35 734.3000000000001 1107.0499999999997 731.15 1126.2999999999997C721.35 1183.6999999999998 721.7 1246.35 763 1291.85C845.9499999999999 1383.55 1036 1354.5 1063.3 1225.6999999999998C1071.7 1185.4499999999998 1066.45 1138.5499999999997 1055.25 1099.35C1050.3500000000001 1082.5499999999997 1044.75 1070.2999999999997 1054.55 1053.85C1069.25 1030.0499999999997 1062.95 1014.6499999999997 1055.95 988.0499999999998C1050.35 965.9999999999998 1043.35 956.1999999999998 1026.55 942.5499999999998C1012.55 931.35 1014.65 903.35 1012.2 887.2499999999998C1009.3999999999997 867.6499999999997 1007.6499999999997 846.9999999999998 995.75 830.5499999999998C991.2 824.2499999999998 966.3500000000003 804.6499999999999 966.3500000000003 797.9999999999998C966.3500000000003 759.4999999999998 964.6000000000003 720.2999999999997 971.25 682.1499999999996C980.3500000000003 627.8999999999996 1025.8500000000001 614.9499999999998 1071.3500000000001 596.3999999999996C1117.55 578.5499999999997 1171.1000000000001 585.1999999999998 1215.9 563.1499999999996C1262.1000000000001 540.3999999999996 1306.55 498.7499999999998 1319.8500000000001 447.2999999999998C1042.3 447.2999999999998 764.7500000000001 447.2999999999998 487.2 447.2999999999998C482.3000000000001 447.2999999999998 477.4 447.2999999999998 472.5000000000001 447.2999999999998C479.15 476.3500000000001 495.25 498.3999999999999 514.85 519.3999999999999C547.0500000000001 553.3500000000001 494.1999999999999 497.3500000000001 514.85 519.3999999999999z M504.35 665C528.85 677.25 555.4499999999999 680.05 582.4 682.8500000000001C592.2 683.9000000000001 596.75 690.55 589.4 700C575.4 717.8500000000001 527.1 721.3500000000001 506.8000000000001 729.3999999999999C494.2 734.2999999999997 490.7 738.8499999999999 489.65 752.8499999999999C489.3000000000001 759.1499999999999 485.8000000000001 787.1499999999999 490.7 791.6999999999999C494.2 795.1999999999999 516.2500000000001 793.8000000000001 521.15 794.5C541.1 796.9499999999999 561.4 801.1499999999999 580.3000000000001 808.5C588.3500000000001 811.6499999999999 596.0500000000001 815.5 603.0500000000001 820.3999999999999C611.45 826.6999999999999 596.75 842.0999999999999 592.9 850.5C581 876.75 575.75 905.45 574 934.15C570.5 990.5 579.25 1047.1999999999998 568.75 1103.1999999999998C553 1188.9499999999998 486.85 1232 402.5 1232C350.35 1232 298.9000000000001 1214.15 269.85 1168.65C237.65 1118.6 239.4 1056.3000000000002 241.15 999.25C242.2 966.7 243.6 933.8 239.05 901.25C236.95 887.25 233.8 873.6000000000001 228.9 860.3000000000001C225.05 850.1500000000001 205.45 824.9499999999999 213.15 819.6999999999999C242.2 799.0500000000001 291.2 792.0500000000001 326.2 794.8499999999999C327.25 777.6999999999999 330.4 755.6499999999999 324.1 739.5499999999997C314.3 714.3499999999999 241.15 707.6999999999998 219.1 700.3499999999999C157.5 679.7 112 628.25 112 560C176.05 560 239.75 560 303.8 560C332.5 560 361.2 560 390.25 560C394.8 560 412.3 592.55 417.2 597.8C441.7 625.1000000000001 471.8000000000001 648.55 504.35 665C535.85 680.75 453.25 639.1000000000001 504.35 665zM359.8 616C302.75 616 245.7 616 188.65 616C213.5 657.3 275.8 654.5 316.75 669.2C354.55 682.8499999999999 378.7 705.95 382.55 746.2C382.9 750.75 383.25 848.3999999999999 379.4 848.3999999999999C348.95 849.4499999999999 317.1 848.75 286.65 853.2999999999998C310.8 931.35 287.7 1011.85 300.65 1090.6C310.1 1147.6499999999999 346.5 1179.1499999999999 404.6 1179.1499999999999C460.25 1179.1499999999999 501.55 1153.25 513.4499999999999 1097.25C530.25 1016.05 506.4499999999999 933.1 532.35 852.5999999999999C513.1 847.6999999999999 492.8 846.9999999999998 472.85 846.2999999999998C463.05 845.9499999999998 452.9 845.5999999999999 443.1 845.2499999999998C436.8 844.8999999999997 438.9 834.0499999999998 438.55 828.7999999999998C435.05 790.6499999999999 421.05 730.4499999999998 451.5 699.6499999999999C417.9000000000001 678.6499999999999 381.5 649.6000000000001 359.8 616z M1399.3 560C1492.75 560 1586.55 560 1680 560C1680 628.25 1634.1499999999999 680.05 1572.55 700.3500000000001C1544.2 709.4500000000003 1489.6000000000001 712.25 1469.3 736.75C1459.15 749 1464.75 780.1499999999999 1465.8 794.8500000000001C1481.2 793.4500000000002 1498 795.9000000000001 1513.75 798C1528.1000000000001 800.1000000000001 1542.1000000000001 802.8999999999999 1555.75 807.8000000000001C1562.05 810.25 1568.3500000000001 812.6999999999999 1574.3 816.1999999999999C1587.95 824.25 1581.65 825.6499999999999 1574.65 837.5500000000001C1536.5000000000002 901.6000000000003 1553.65 982.8 1551.9 1053.15C1550.5000000000002 1111.6 1535.1000000000001 1175.65 1481.9 1208.5500000000002C1433.9500000000003 1238.3000000000002 1362.9 1239.3500000000001 1311.4500000000003 1218.3500000000001C1163.0500000000002 1158.8500000000001 1250.5500000000002 962.15 1199.8000000000002 849.4500000000002C1191.0500000000002 830.5500000000002 1178.4500000000003 823.9000000000001 1200.5000000000002 812.7000000000002C1212.7500000000002 806.4000000000001 1226.0500000000002 802.2000000000002 1239.3500000000004 799.0500000000002C1259.6500000000003 794.1500000000003 1280.6500000000003 791.3500000000003 1301.6500000000003 790.6500000000003C1305.1500000000003 790.6500000000003 1302.7000000000003 746.5500000000002 1301.6500000000003 742.0000000000005C1297.8000000000002 724.8500000000004 1260.3500000000004 719.9500000000003 1246.3500000000004 716.1000000000004C1232.0000000000002 712.2500000000005 1208.2000000000003 711.2000000000005 1201.2000000000003 696.1500000000005C1190.7000000000003 673.7500000000007 1235.8500000000004 679.3500000000004 1247.0500000000004 677.2500000000007C1283.1000000000004 670.6000000000006 1314.9500000000003 650.6500000000005 1342.9500000000003 627.9000000000005C1363.6000000000001 611.1000000000001 1391.6000000000001 587.3 1399.3 560zM1397.8999999999999 654.8500000000001C1380.0499999999997 671.3 1361.5 687.4000000000001 1340.85 700.3500000000001C1371.6499999999999 731.1500000000001 1357.2999999999997 791 1353.7999999999997 829.5C1351.6999999999998 851.5500000000001 1346.7999999999997 845.9499999999999 1324.7499999999998 846.6499999999999C1303.7499999999998 847.3499999999999 1279.9499999999998 846.2999999999998 1259.9999999999998 852.9499999999999C1285.1999999999998 931 1264.5499999999997 1011.1499999999997 1277.4999999999998 1090.6C1287.2999999999997 1150.4499999999998 1328.2499999999998 1179.85 1387.7499999999998 1179.85C1441.6499999999996 1179.85 1478.7499999999998 1152.9 1489.9499999999998 1099.35C1507.0999999999997 1018.5 1480.8499999999997 934.85 1505.6999999999998 854.3500000000001C1475.9499999999998 849.8000000000001 1445.1499999999996 850.8500000000001 1415.0499999999997 849.8000000000001C1407.6999999999998 849.4499999999999 1408.3999999999999 761.95 1409.1 754.25C1411.5499999999997 713.3 1430.45 688.45 1469.2999999999997 672.7C1511.6499999999999 655.55 1577.7999999999997 660.0999999999999 1603.6999999999998 617.05C1571.1499999999996 617.05 1538.9499999999998 617.05 1506.3999999999996 617.05C1486.7999999999997 617.05 1467.1999999999998 617.05 1447.2499999999998 617.05C1422.3999999999999 616.7 1416.1000000000001 638.3999999999999 1397.8999999999999 654.8500000000001C1380.3999999999999 670.95 1411.8999999999999 642.25 1397.8999999999999 654.8500000000001z" />
    <glyph glyph-name="group"
      unicode="&#xE029;"
      horiz-adv-x="1792" d=" M896 1400L896 1400L896 1400z M1222.2 620.2C1174.95 636.6499999999999 1123.85 637.7 1076.6 654.1499999999999C1062.2499999999998 659.0499999999997 1033.8999999999999 665 1027.95 681.45C1022.35 697.55 1022.35 716.45 1021.3 733.25C1020.6000000000003 746.55 1020.25 759.8500000000001 1020.25 773.1499999999999C1020.25 781.8999999999999 1042.6499999999999 800.4499999999999 1047.55 808.5C1066.45 840 1068.2 882.3500000000001 1071.7 918.05C1102.1499999999999 909.65 1106 966 1111.25 983.15C1115.1000000000001 995.05 1138.55 1076.95 1102.1499999999999 1065.75C1110.8999999999999 1081.15 1114.3999999999999 1100.0500000000002 1116.85 1117.1999999999998C1123.85 1162 1126.6499999999999 1211 1112.9999999999998 1254.75C1084.6499999999996 1345.75 997.4999999999998 1396.85 905.4499999999998 1399.65C811.9999999999998 1402.8000000000002 718.1999999999998 1358 683.1999999999998 1267.3500000000001C666.3999999999997 1223.25 667.7999999999997 1175.3000000000002 673.3999999999997 1129.1000000000001C675.8499999999997 1108.1000000000001 679.3499999999997 1084.65 689.8499999999997 1065.75C655.8999999999997 1075.9 674.0999999999997 1003.8000000000002 677.9499999999997 991.2C683.5499999999996 973.3500000000003 688.4499999999997 909.3 720.2999999999996 918.05C723.0999999999997 889.6999999999999 726.2499999999995 860.6500000000001 733.9499999999997 833C739.1999999999997 814.4499999999999 750.0499999999996 798.6999999999999 762.6499999999996 784.3500000000001C768.9499999999997 777.3500000000001 772.0999999999996 776.6500000000001 771.7499999999995 767.55C771.3999999999996 740.25 772.0999999999996 710.8500000000001 765.0999999999996 684.25C758.0999999999996 657.6499999999999 699.6499999999996 646.45 676.1999999999996 641.55C613.1999999999996 628.6000000000001 555.0999999999996 622.6500000000001 502.5999999999996 583.45C441.35 538.3 409.5 467.95 409.5 392C701.0500000000001 392 992.6000000000003 392 1284.1499999999999 392C1317.0499999999997 392 1349.6 392 1382.5 392C1382.5 495.25 1320.2 586.25 1222.2 620.2C1183 633.8500000000001 1261.75 606.55 1222.2 620.2zM514.85 519.3999999999999C534.4499999999999 540.0499999999997 559.3 558.25 586.25 568.3999999999999C623 582.3999999999999 664.65 581.7 702.8000000000001 591.5C734.3000000000001 599.55 773.5 612.1499999999999 798 634.8999999999999C820.4 655.8999999999999 822.85 688.0999999999999 824.9499999999999 717.1499999999999C826.6999999999999 741.6499999999999 826.35 765.7999999999997 826.35 790.2999999999998C826.35 807.4499999999998 806.4 817.2499999999998 796.6 830.8999999999999C780.85 852.25 780.15 884.0999999999999 777 909.6499999999997C775.6 920.85 775.25 935.2 765.8000000000001 942.8999999999997C755.3000000000001 951.3 747.6000000000001 955.85 742.3500000000001 969.1499999999997C735.3500000000001 987.35 732.9000000000001 1006.95 727.3000000000001 1025.85C723.8000000000001 1038.1 736.0500000000001 1049.6499999999999 740.95 1059.7999999999997C750.0500000000001 1078.35 734.3000000000001 1107.0499999999997 731.15 1126.2999999999997C721.35 1183.6999999999998 721.7 1246.35 763 1291.85C845.9499999999999 1383.55 1036 1354.5 1063.3 1225.6999999999998C1071.7 1185.4499999999998 1066.45 1138.5499999999997 1055.25 1099.35C1050.3500000000001 1082.5499999999997 1044.75 1070.2999999999997 1054.55 1053.85C1069.25 1030.0499999999997 1062.95 1014.6499999999997 1055.95 988.0499999999998C1050.35 965.9999999999998 1043.35 956.1999999999998 1026.55 942.5499999999998C1012.55 931.35 1014.65 903.35 1012.2 887.2499999999998C1009.3999999999997 867.6499999999997 1007.6499999999997 846.9999999999998 995.75 830.5499999999998C991.2 824.2499999999998 966.3500000000003 804.6499999999999 966.3500000000003 797.9999999999998C966.3500000000003 759.4999999999998 964.6000000000003 720.2999999999997 971.25 682.1499999999996C980.3500000000003 627.8999999999996 1025.8500000000001 614.9499999999998 1071.3500000000001 596.3999999999996C1117.55 578.5499999999997 1171.1000000000001 585.1999999999998 1215.9 563.1499999999996C1262.1000000000001 540.3999999999996 1306.55 498.7499999999998 1319.8500000000001 447.2999999999998C1042.3 447.2999999999998 764.7500000000001 447.2999999999998 487.2 447.2999999999998C482.3000000000001 447.2999999999998 477.4 447.2999999999998 472.5000000000001 447.2999999999998C479.15 476.3500000000001 495.25 498.3999999999999 514.85 519.3999999999999C547.0500000000001 553.3500000000001 494.1999999999999 497.3500000000001 514.85 519.3999999999999z M504.35 665C528.85 677.25 555.4499999999999 680.05 582.4 682.8500000000001C592.2 683.9000000000001 596.75 690.55 589.4 700C575.4 717.8500000000001 527.1 721.3500000000001 506.8000000000001 729.3999999999999C494.2 734.2999999999997 490.7 738.8499999999999 489.65 752.8499999999999C489.3000000000001 759.1499999999999 485.8000000000001 787.1499999999999 490.7 791.6999999999999C494.2 795.1999999999999 516.2500000000001 793.8000000000001 521.15 794.5C541.1 796.9499999999999 561.4 801.1499999999999 580.3000000000001 808.5C588.3500000000001 811.6499999999999 596.0500000000001 815.5 603.0500000000001 820.3999999999999C611.45 826.6999999999999 596.75 842.0999999999999 592.9 850.5C581 876.75 575.75 905.45 574 934.15C570.5 990.5 579.25 1047.1999999999998 568.75 1103.1999999999998C553 1188.9499999999998 486.85 1232 402.5 1232C350.35 1232 298.9000000000001 1214.15 269.85 1168.65C237.65 1118.6 239.4 1056.3000000000002 241.15 999.25C242.2 966.7 243.6 933.8 239.05 901.25C236.95 887.25 233.8 873.6000000000001 228.9 860.3000000000001C225.05 850.1500000000001 205.45 824.9499999999999 213.15 819.6999999999999C242.2 799.0500000000001 291.2 792.0500000000001 326.2 794.8499999999999C327.25 777.6999999999999 330.4 755.6499999999999 324.1 739.5499999999997C314.3 714.3499999999999 241.15 707.6999999999998 219.1 700.3499999999999C157.5 679.7 112 628.25 112 560C176.05 560 239.75 560 303.8 560C332.5 560 361.2 560 390.25 560C394.8 560 412.3 592.55 417.2 597.8C441.7 625.1000000000001 471.8000000000001 648.55 504.35 665C535.85 680.75 453.25 639.1000000000001 504.35 665zM359.8 616C302.75 616 245.7 616 188.65 616C213.5 657.3 275.8 654.5 316.75 669.2C354.55 682.8499999999999 378.7 705.95 382.55 746.2C382.9 750.75 383.25 848.3999999999999 379.4 848.3999999999999C348.95 849.4499999999999 317.1 848.75 286.65 853.2999999999998C310.8 931.35 287.7 1011.85 300.65 1090.6C310.1 1147.6499999999999 346.5 1179.1499999999999 404.6 1179.1499999999999C460.25 1179.1499999999999 501.55 1153.25 513.4499999999999 1097.25C530.25 1016.05 506.4499999999999 933.1 532.35 852.5999999999999C513.1 847.6999999999999 492.8 846.9999999999998 472.85 846.2999999999998C463.05 845.9499999999998 452.9 845.5999999999999 443.1 845.2499999999998C436.8 844.8999999999997 438.9 834.0499999999998 438.55 828.7999999999998C435.05 790.6499999999999 421.05 730.4499999999998 451.5 699.6499999999999C417.9000000000001 678.6499999999999 381.5 649.6000000000001 359.8 616z M1399.3 560C1492.75 560 1586.55 560 1680 560C1680 628.25 1634.1499999999999 680.05 1572.55 700.3500000000001C1544.2 709.4500000000003 1489.6000000000001 712.25 1469.3 736.75C1459.15 749 1464.75 780.1499999999999 1465.8 794.8500000000001C1481.2 793.4500000000002 1498 795.9000000000001 1513.75 798C1528.1000000000001 800.1000000000001 1542.1000000000001 802.8999999999999 1555.75 807.8000000000001C1562.05 810.25 1568.3500000000001 812.6999999999999 1574.3 816.1999999999999C1587.95 824.25 1581.65 825.6499999999999 1574.65 837.5500000000001C1536.5000000000002 901.6000000000003 1553.65 982.8 1551.9 1053.15C1550.5000000000002 1111.6 1535.1000000000001 1175.65 1481.9 1208.5500000000002C1433.9500000000003 1238.3000000000002 1362.9 1239.3500000000001 1311.4500000000003 1218.3500000000001C1163.0500000000002 1158.8500000000001 1250.5500000000002 962.15 1199.8000000000002 849.4500000000002C1191.0500000000002 830.5500000000002 1178.4500000000003 823.9000000000001 1200.5000000000002 812.7000000000002C1212.7500000000002 806.4000000000001 1226.0500000000002 802.2000000000002 1239.3500000000004 799.0500000000002C1259.6500000000003 794.1500000000003 1280.6500000000003 791.3500000000003 1301.6500000000003 790.6500000000003C1305.1500000000003 790.6500000000003 1302.7000000000003 746.5500000000002 1301.6500000000003 742.0000000000005C1297.8000000000002 724.8500000000004 1260.3500000000004 719.9500000000003 1246.3500000000004 716.1000000000004C1232.0000000000002 712.2500000000005 1208.2000000000003 711.2000000000005 1201.2000000000003 696.1500000000005C1190.7000000000003 673.7500000000007 1235.8500000000004 679.3500000000004 1247.0500000000004 677.2500000000007C1283.1000000000004 670.6000000000006 1314.9500000000003 650.6500000000005 1342.9500000000003 627.9000000000005C1363.6000000000001 611.1000000000001 1391.6000000000001 587.3 1399.3 560zM1397.8999999999999 654.8500000000001C1380.0499999999997 671.3 1361.5 687.4000000000001 1340.85 700.3500000000001C1371.6499999999999 731.1500000000001 1357.2999999999997 791 1353.7999999999997 829.5C1351.6999999999998 851.5500000000001 1346.7999999999997 845.9499999999999 1324.7499999999998 846.6499999999999C1303.7499999999998 847.3499999999999 1279.9499999999998 846.2999999999998 1259.9999999999998 852.9499999999999C1285.1999999999998 931 1264.5499999999997 1011.1499999999997 1277.4999999999998 1090.6C1287.2999999999997 1150.4499999999998 1328.2499999999998 1179.85 1387.7499999999998 1179.85C1441.6499999999996 1179.85 1478.7499999999998 1152.9 1489.9499999999998 1099.35C1507.0999999999997 1018.5 1480.8499999999997 934.85 1505.6999999999998 854.3500000000001C1475.9499999999998 849.8000000000001 1445.1499999999996 850.8500000000001 1415.0499999999997 849.8000000000001C1407.6999999999998 849.4499999999999 1408.3999999999999 761.95 1409.1 754.25C1411.5499999999997 713.3 1430.45 688.45 1469.2999999999997 672.7C1511.6499999999999 655.55 1577.7999999999997 660.0999999999999 1603.6999999999998 617.05C1571.1499999999996 617.05 1538.9499999999998 617.05 1506.3999999999996 617.05C1486.7999999999997 617.05 1467.1999999999998 617.05 1447.2499999999998 617.05C1422.3999999999999 616.7 1416.1000000000001 638.3999999999999 1397.8999999999999 654.8500000000001C1380.3999999999999 670.95 1411.8999999999999 642.25 1397.8999999999999 654.8500000000001z" />
    <glyph glyph-name="settings"
      unicode="&#xE02A;"
      horiz-adv-x="1792" d=" M896 1162.4809411764704C750.7425882352941 1162.4809411764704 632.4705882352941 1044.2089411764705 632.4705882352941 898.9515294117646S750.7425882352941 635.4221176470587 896 635.4221176470587S1159.5294117647059 753.6941176470586 1159.5294117647059 898.9515294117646S1041.257411764706 1162.4809411764704 896 1162.4809411764704zM896 740.8338823529414C808.8244705882353 740.8338823529414 737.8823529411765 811.7760000000001 737.8823529411765 898.9515294117648S808.8244705882353 1057.0691764705884 896 1057.0691764705884S1054.1176470588234 986.1270588235296 1054.1176470588234 898.9515294117648S983.1755294117646 740.8338823529414 896 740.8338823529414zM1785.6752941176471 796.2804705882354C1789.5755294117646 830.1176470588235 1792 864.2710588235294 1792 898.9515294117648S1789.5755294117646 967.785411764706 1785.6752941176471 1001.6225882352942L1512.8696470588236 1083.6329411764707C1500.3256470588235 1126.0084705882355 1483.565176470588 1166.592 1462.9044705882352 1204.7510588235295L1597.7261176470588 1455.3148235294118C1554.9289411764705 1509.0748235294118 1506.123294117647 1557.8804705882353 1452.2578823529411 1600.7830588235295L1201.694117647059 1465.856C1163.4296470588238 1486.516705882353 1122.8461176470591 1503.1717647058824 1080.4705882352941 1515.8211764705884L998.6710588235296 1788.626823529412C964.9392941176473 1792.5270588235296 930.7858823529414 1794.9515294117648 896.0000000000001 1794.9515294117648S827.0607058823531 1792.5270588235296 793.3289411764707 1788.626823529412L711.5294117647061 1515.8211764705884C669.0484705882354 1503.2771764705883 628.3595294117649 1486.516705882353 590.3058823529414 1465.7505882352943L339.742117647059 1600.6776470588236C285.8767058823531 1557.8804705882353 237.0710588235296 1509.0748235294118 194.3792941176472 1455.209411764706L329.2009411764708 1204.8564705882354C308.5402352941178 1166.697411764706 291.8851764705884 1126.0084705882355 279.2357647058825 1083.6329411764707L6.3247058823531 1001.6225882352942C2.4244705882355 967.8908235294118 2e-13 933.737411764706 2e-13 898.9515294117648S2.4244705882355 830.0122352941178 6.3247058823531 796.2804705882354L279.1303529411767 714.4809411764707C291.7797647058826 672 308.434823529412 631.3110588235295 329.0955294117649 593.152L194.2738823529414 342.6936470588237C237.0710588235296 288.8282352941181 285.8767058823531 240.0225882352943 339.742117647059 197.2254117647062L590.3058823529414 332.0470588235296C628.4649411764707 311.3863529411767 669.1538823529413 294.7312941176474 711.5294117647061 282.0818823529414L793.3289411764707 9.2762352941179C827.166117647059 5.3760000000002 861.3195294117647 2.951529411765 896.0000000000001 2.951529411765S964.9392941176473 5.3760000000002 998.6710588235296 9.2762352941179L1080.4705882352941 282.0818823529414C1122.846117647059 294.7312941176472 1163.5350588235297 311.3863529411767 1201.694117647059 332.0470588235296L1452.1524705882355 197.2254117647062C1506.0178823529411 240.1280000000004 1554.8235294117649 288.9336470588237 1597.6207058823531 342.7990588235298L1462.9044705882354 593.2574117647061C1483.5651764705883 631.4164705882356 1500.2202352941176 672.1054117647061 1512.8696470588236 714.4809411764709L1785.6752941176471 796.2804705882355zM1428.118588235294 799.1265882352941L1411.8851764705882 744.5232941176471C1401.344 708.9995294117646 1387.3242352941174 674.9515294117646 1370.1421176470587 643.4334117647059L1343.1567058823528 593.3628235294118L1370.0367058823529 543.2922352941177L1470.388705882353 356.7134117647061C1459.9529411764704 345.6451764705883 1449.2009411764705 334.8931764705883 1438.1327058823529 324.457411764706L1201.6941176470589 451.9002352941177L1151.6235294117648 424.914823529412C1119.8945882352941 407.732705882353 1085.8465882352941 393.8183529411765 1050.4282352941175 383.1717647058824L995.8249411764704 366.9383529411766L979.4861176470588 312.3350588235294L918.4527058823528 108.6795294117646C910.8630588235294 108.4687058823529 903.3788235294116 108.363294117647 896 108.363294117647S881.1369411764706 108.4687058823529 873.5472941176471 108.6795294117646L812.5138823529412 312.3350588235294L796.1750588235294 366.9383529411766L741.5717647058824 383.1717647058824C706.1534117647059 393.7129411764706 672.105411764706 407.732705882353 640.4818823529413 424.914823529412L590.4112941176472 451.9002352941177L353.7618823529413 324.6682352941177C342.7990588235296 335.1040000000001 331.9416470588237 345.8560000000002 321.5058823529414 356.9242352941176L448.8432941176473 593.4682352941177L421.8578823529413 643.5388235294117C404.7811764705884 675.1623529411766 390.7614117647061 709.2103529411763 380.1148235294119 744.7341176470586L363.986823529412 799.2319999999997L105.8334117647061 876.6042352941174C105.5171764705884 884.1938823529408 105.4117647058825 891.6781176470587 105.4117647058825 898.9515294117645C105.4117647058825 906.3303529411762 105.5171764705884 913.8145882352939 105.8334117647061 921.4042352941173L363.8814117647061 998.776470588235L380.1148235294119 1053.3797647058818C390.6560000000002 1088.9035294117643 404.6757647058825 1122.9515294117643 421.8578823529413 1154.469647058823L448.8432941176473 1204.540235294117L321.5058823529414 1441.189647058823C331.9416470588237 1452.1524705882348 342.6936470588237 1463.0098823529406 353.6564705882355 1473.445647058823L590.5167058823531 1345.8974117647053L640.6927058823532 1373.199058823529C672.0000000000001 1390.2757647058818 705.9425882352942 1404.2955294117642 741.4663529411768 1414.8367058823524L796.0696470588238 1431.0701176470584L812.4084705882356 1485.6734117647054L873.4418823529414 1689.3289411764702C881.1369411764709 1689.434352941176 888.6211764705886 1689.539764705882 896.0000000000003 1689.539764705882S910.8630588235299 1689.434352941176 918.4527058823531 1689.2235294117643L979.4861176470592 1485.5679999999995L995.8249411764708 1430.9647058823525L1050.428235294118 1414.7312941176465C1085.7411764705887 1404.1901176470583 1119.8945882352946 1390.170352941176 1151.623529411765 1372.9882352941172L1201.694117647059 1346.108235294117L1438.2381176470592 1473.445647058823C1449.200941176471 1463.0098823529406 1460.058352941177 1452.2578823529407 1470.494117647059 1441.189647058823L1370.0367058823533 1254.6108235294114L1343.1567058823532 1204.5402352941173L1370.2475294117648 1154.4696470588233C1387.4296470588238 1122.8461176470585 1401.3440000000003 1088.9035294117643 1411.8851764705885 1053.5905882352938L1428.1185882352943 998.9872941176468L1482.7218823529413 982.648470588235L1686.377411764706 921.4042352941173C1686.482823529412 913.8145882352939 1686.588235294118 906.330352941176 1686.588235294118 898.9515294117645S1686.4828235294121 884.088470588235 1686.1665882352945 876.4988235294115L1428.1185882352945 799.126588235294z" />
    <glyph glyph-name="votes"
      unicode="&#xE02B;"
      horiz-adv-x="1792" d=" M1723.9039999999998 538.0216470588234L1649.377882352941 463.4955294117647L895.9999999999998 1216.7679999999998L142.7275294117645 463.4955294117647L68.2014117647057 538.0216470588234L895.9999999999998 1365.8202352941175L1723.9039999999998 538.0216470588234z" />
    <glyph glyph-name="activity"
      unicode="&#xE02C;"
      horiz-adv-x="1792" d=" M1510.550588235294 948.7058823529412L1312.798117647059 1410.0931764705883L950.3924705882353 378.8498823529415L527.1642352941177 1760.798117647059L277.3383529411765 948.7058823529414H0V843.2941176470589H355.1322352941177L526.953411764706 1401.5548235294118L943.3298823529414 41.4268235294119L1322.496 1119.7891764705882L1440.9788235294118 843.2941176470589H1792V948.7058823529412z" />
    <glyph glyph-name="post"
      unicode="&#xE02D;"
      horiz-adv-x="1792" d=" M1581.1764705882351 527.0588235294117H210.8235294117647V632.4705882352941H1581.1764705882351V527.0588235294117zM1264.9411764705883 422.3849411764707H210.8235294117647V316.9731764705882H1264.9411764705883V422.3849411764707zM1792 1686.5882352941176V105.4117647058824H0V1686.5882352941176H1792zM1686.5882352941176 1581.1764705882354H105.4117647058824V210.8235294117649H1686.5882352941176V1581.1764705882354z" />
    <glyph glyph-name="submission"
      unicode="&#xE02E;"
      horiz-adv-x="1792" d=" M0 1792V1475.764705882353H1792V1792H0zM1686.5882352941176 1581.1764705882354H105.4117647058824V1686.5882352941176H1686.5882352941176V1581.1764705882354zM0 421.6470588235295H1792V1370.3529411764707H0V421.6470588235295zM105.4117647058824 1264.9411764705883H1686.5882352941176V527.0588235294117H105.4117647058824V1264.9411764705883zM0 0H1792V316.2352941176471H0V0zM105.4117647058824 210.8235294117649H1686.5882352941176V105.4117647058824H105.4117647058824V210.8235294117649z" />
    <glyph glyph-name="trending"
      unicode="&#xE030;"
      horiz-adv-x="1792" d=" M1686.5882352941176 1581.1764705882354L1054.1176470588234 1581.1764705882354L1054.1176470588234 1475.764705882353L1612.8 1475.764705882353L896 758.964705882353L685.1764705882352 969.7882352941178L685.1764705882352 969.7882352941178L685.1764705882352 969.7882352941178L0 284.6117647058823L73.7882352941176 210.8235294117649L685.1764705882352 822.2117647058825L822.2117647058823 685.1764705882354L896 621.929411764706L896 611.3882352941177L1686.5882352941176 1401.9764705882353L1686.5882352941176 843.2941176470589L1792 843.2941176470589L1792 1475.764705882353L1792 1581.1764705882354z" />
    <glyph glyph-name="approved"
      unicode="&#xE031;"
      horiz-adv-x="1792" d=" M896 1680C463.0500000000001 1680 112 1328.9499999999998 112 896C112 463.05 463.0500000000001 112 896 112C1328.95 112 1680 463.05 1680 896C1680 1328.9499999999998 1328.95 1680 896 1680zM1298.1499999999999 1158.15L811.3000000000001 533.3999999999999C807.45 529.5499999999997 801.15 521.1499999999999 793.45 521.1499999999999C785.4 521.1499999999999 780.15 526.75 775.6000000000001 531.2999999999997C771.0500000000001 535.8499999999999 499.45 796.9499999999998 499.45 796.9499999999998L494.2 802.1999999999998C492.1000000000001 805.3499999999997 490.3500000000001 809.1999999999998 490.3500000000001 813.3999999999997C490.3500000000001 817.5999999999997 492.1000000000001 821.4499999999998 494.2 824.5999999999997C495.6000000000001 825.9999999999995 496.65 827.0499999999996 498.0500000000001 828.7999999999996C525 857.1499999999997 579.6000000000001 914.5499999999996 583.1000000000001 918.0499999999996C587.6500000000001 922.5999999999996 591.5000000000001 928.5499999999996 599.9000000000001 928.5499999999996C608.6500000000001 928.5499999999996 614.2500000000001 921.1999999999998 618.4500000000002 916.9999999999995C622.6500000000001 912.7999999999996 775.9500000000002 765.4499999999996 775.9500000000002 765.4499999999996L1165.5000000000002 1265.9499999999996C1169.0000000000002 1268.7499999999995 1173.2000000000003 1270.8499999999995 1177.7500000000002 1270.8499999999995C1182.3000000000002 1270.8499999999995 1186.5000000000002 1269.0999999999995 1190.0000000000002 1266.2999999999995L1297.1000000000004 1181.9499999999996C1299.9000000000003 1178.4499999999996 1301.6500000000003 1174.2499999999995 1301.6500000000003 1169.6999999999996C1302 1165.15 1300.25 1161.3000000000002 1298.1499999999999 1158.15z" />
    <glyph glyph-name="pencil"
      unicode="&#xE032;"
      horiz-adv-x="1792" d=" M1739.1887058823527 1597.7261176470588L1591.2959999999998 1745.6188235294117C1531.6329411764702 1805.2818823529412 1427.3807058823527 1805.2818823529412 1367.6122352941175 1745.6188235294117L573.2291764705881 951.2357647058826L391.7101176470587 393.9237647058826L945.016470588235 579.9755294117649L1739.1887058823527 1374.1477647058825C1769.0202352941176 1403.9792941176474 1785.4644705882351 1443.719529411765 1785.4644705882351 1485.9896470588237S1769.0202352941176 1567.8945882352943 1739.1887058823527 1597.726117647059zM588.619294117647 657.9802352941178L655.872 864.2710588235296L858.2625882352941 661.9858823529414L653.5529411764704 593.152L588.619294117647 657.9802352941178zM720.1731764705881 949.1275294117648L1140.3444705882353 1369.298823529412L1362.7632941176469 1146.88L942.5919999999998 726.7087058823531L720.1731764705881 949.1275294117648zM1214.870588235294 1443.8249411764705L1291.7157647058823 1520.6701176470588L1514.134588235294 1298.2512941176471L1437.2894117647058 1221.4061176470589L1214.870588235294 1443.8249411764707zM1664.662588235294 1448.6738823529413L1588.7661176470588 1372.672L1366.347294117647 1595.0908235294119L1442.2437647058823 1671.092705882353C1462.272 1691.0155294117646 1496.9524705882352 1691.0155294117646 1516.7698823529413 1671.092705882353L1664.6625882352942 1523.2C1674.571294117647 1513.185882352941 1680.0527058823532 1500.0094117647059 1680.0527058823532 1485.8842352941176S1674.5712941176473 1458.688 1664.6625882352942 1448.673882352941zM1581.1764705882351 1001.4117647058824H1686.5882352941176V0H0V1581.1764705882354H790.5882352941176V1475.764705882353H105.4117647058824V105.4117647058824H1581.1764705882351V1001.4117647058824z" />
    <glyph glyph-name="points"
      unicode="&#xE033;"
      horiz-adv-x="1792" d=" M1534.3999999999999 1232L1512 1265.6C1478.3999999999999 1321.6 1433.6000000000001 1411.1999999999998 1422.3999999999999 1478.4L1411.2 1523.1999999999998C1400 1590.4 1332.8 1646.4 1276.8 1657.6L1232 1657.6C1164.8 1668.8 1075.2 1702.4 1019.2 1747.2L985.6000000000003 1769.6C929.6000000000003 1803.2 840 1803.2 784 1758.4L750.4 1736C705.6 1691.2 604.8000000000001 1657.6 537.6 1646.4L504 1635.2C436.8 1624 380.8 1556.8 369.6 1500.8L358.4000000000001 1456C347.2 1388.8 313.6 1288 280 1243.1999999999998L246.4000000000001 1209.6C212.8 1153.6 212.8 1064 257.6 1008L280 974.4C313.6 918.4 358.4000000000001 828.8000000000001 369.6 761.6000000000001L380.8 716.8C392 649.6000000000001 459.1999999999999 593.6000000000001 515.1999999999999 582.4000000000001L560 582.3999999999999C627.1999999999999 571.2 716.8000000000001 537.5999999999999 772.8000000000001 492.7999999999997L806.4 470.3999999999999C862.4 436.7999999999998 952 436.7999999999998 996.8 470.3999999999999L1030.4 492.7999999999997C1086.4 526.3999999999999 1176.0000000000002 571.1999999999998 1243.2000000000003 582.3999999999999L1288.0000000000002 593.5999999999999C1355.2000000000003 604.7999999999997 1411.2000000000003 671.9999999999998 1422.4 727.9999999999998L1433.6000000000001 784C1444.8 851.1999999999999 1478.4 940.8 1523.2000000000003 996.8L1545.6000000000001 1030.4C1579.2 1086.4 1579.2 1176 1534.3999999999999 1232zM929.6000000000003 672C683.1999999999999 649.6000000000001 470.4 840 448 1086.4C425.6 1332.8000000000002 616 1545.6 862.4 1568C1108.8 1590.4 1321.6000000000001 1400 1344 1153.6C1366.3999999999999 907.2 1176 694.3999999999999 929.6000000000003 672z M560 1120C560 934.4323240568534 710.4323240568534 784 896 784C1081.5676759431465 784 1232 934.4323240568534 1232 1120C1232 1305.5676759431467 1081.5676759431465 1456 896 1456C710.4323240568534 1456 560 1305.5676759431467 560 1120z M560 672V0L896 224L1232 0V672H560zM1120 212.8L896 358.4000000000001L672 212.8V560H1120V212.8z" />
    <glyph glyph-name="starburst"
      unicode="&#xE034;"
      horiz-adv-x="1792" d=" M840 0L952 0L896 896z M0 952L0 840L896 896z M1792 840L1792 952L896 896z M952 1792L840 1792L896 896z M0 100.8L0 0L100.8 0L896 896z M100.8 1792L0 1792L0 1691.2L896 896z M1691.2 0L1792 0L1792 100.8L896 896z M1792 1691.2L1792 1792L1691.2 1792L896 896z M1344 0L1489.6000000000001 0L896 896z M0 448L0 302.3999999999999L896 896z M1792 1344L1792 1489.6L896 896z M448 1792L302.4000000000001 1792L896 896z M593.6 0L716.8000000000001 0L896 896z M0 1198.4L0 1075.1999999999998L896 896z M1792 593.6000000000001L1792 716.8L896 896z M1198.3999999999999 1792L1075.2 1792L896 896z M302.4000000000001 0L448 0L896 896z M0 1489.6L0 1344L896 896z M1792 302.3999999999999L1792 448L896 896z M1489.6000000000001 1792L1344 1792L896 896z M0 716.8L0 593.6000000000001L896 896z M716.8000000000001 1792L593.6 1792L896 896z M1075.2 0L1198.3999999999999 0L896 896z M1792 1075.1999999999998L1792 1198.4L896 896z" />
    <glyph glyph-name="reactions"
      unicode="&#xE035;"
      horiz-adv-x="1792" d=" M896 1792C403.2 1792 0 1388.8 0 896S403.2 0 896 0S1792 403.2000000000001 1792 896S1388.8 1792 896 1792zM1176 1456C1265.6000000000001 1456 1344 1377.6 1344 1288S1265.6000000000001 1120 1176 1120S1008 1198.4 1008 1288S1086.3999999999999 1456 1176 1456zM616 1456C705.6 1456 784 1377.6 784 1288S705.6 1120 616 1120S448 1198.4 448 1288S526.4 1456 616 1456zM1680 896C1680 459.2 1332.8 112 896 112S112 459.2 112 896" />
    <glyph glyph-name="badges"
      unicode="&#xE036;"
      horiz-adv-x="1792" d=" M1579.2 1422.4L996.8 1769.6C940.8 1803.2 851.2 1803.2 806.4 1769.6L212.8 1422.4C156.8 1388.8 112 1310.4 112 1243.1999999999998V548.7999999999997C112 481.5999999999999 156.8 403.1999999999998 212.8 369.5999999999999L806.3999999999999 22.3999999999999C862.3999999999999 -11.2000000000003 952 -11.2000000000003 996.7999999999998 22.3999999999999L1590.3999999999999 369.5999999999999C1646.3999999999999 403.2000000000001 1691.2 481.5999999999999 1691.2 548.7999999999997V1243.1999999999998C1680 1310.4 1635.2 1388.8 1579.2 1422.4zM1568 548.8C1568 526.4000000000001 1545.6000000000001 481.6000000000001 1523.2 470.4000000000001L929.6000000000003 123.2000000000003C929.6000000000003 112 918.3999999999997 112 896 112S862.4 112 851.1999999999999 123.2000000000001L257.6 470.3999999999999C246.4000000000001 481.6000000000001 224 526.3999999999999 224 548.8V1243.1999999999998C224 1265.6 246.4000000000001 1310.3999999999999 268.8 1321.6L862.3999999999999 1668.8C862.4 1680 873.6 1680 896 1680S929.6000000000003 1680 940.8 1668.8L1534.3999999999999 1321.6C1545.6000000000001 1310.4 1568 1265.6 1568 1243.1999999999998V548.8z M896 1321.6L996.8 1019.2L1321.6000000000001 1019.2L1064 817.6000000000001L1164.8 515.2L896 705.6000000000001L627.1999999999999 515.2L728 817.6000000000001L470.4 1019.2L795.1999999999999 1019.2z" />
    <glyph glyph-name="facebook"
      unicode="&#xE040;"
      horiz-adv-x="1792" d=" M1691.2 1792H100.8C44.8 1792 0 1747.2 0 1691.2V100.8C0 44.8 44.8 0 100.8 0H963.2V694.3999999999999H728V963.2H963.2V1164.8000000000002C963.2 1400 1108.8 1523.2 1310.3999999999999 1523.2C1411.2 1523.2 1489.6 1512 1523.2 1512V1265.6000000000001H1377.6C1265.6 1265.6000000000001 1243.2 1209.6000000000001 1243.2 1131.2V963.2H1512L1478.3999999999999 694.4000000000001H1232V0H1691.2C1747.2 0 1792 44.8 1792 100.8V1691.2C1792 1747.2 1747.2 1792 1691.2 1792" />
    <glyph glyph-name="twitter"
      unicode="&#xE041;"
      horiz-adv-x="1792" d=" M1792 1456C1724.8 1422.4 1657.6000000000001 1411.2 1579.2 1400C1657.6 1444.8 1713.6 1512 1736 1601.6C1668.8 1556.8 1590.3999999999999 1534.4 1500.8 1512C1433.6000000000001 1579.2 1344 1624 1232 1624C1030.3999999999999 1624 873.6 1456 873.6 1254.4C873.6 1220.8000000000002 873.6 1198.4 884.8 1176C571.1999999999999 1187.1999999999998 302.4000000000001 1332.8000000000002 123.2 1556.8C89.6 1500.8 78.4 1444.8 78.4 1377.6C78.4 1254.3999999999999 145.6 1142.3999999999999 246.4000000000001 1075.1999999999998C190.4 1075.1999999999998 134.4 1097.6 78.4 1120V1120C78.4 940.8 201.6 795.1999999999999 369.6 761.6000000000001C336 739.2 302.4000000000001 739.2 268.8 739.2C246.4 739.2 224 739.2 201.6 750.3999999999999C246.4 604.7999999999997 380.8 492.7999999999997 548.8000000000001 492.7999999999997C425.6 391.9999999999998 268.8000000000001 335.9999999999998 89.6000000000001 335.9999999999998C56.0000000000001 335.9999999999998 33.6000000000001 335.9999999999998 1e-13 335.9999999999998C168.0000000000001 235.1999999999998 358.4000000000001 167.9999999999998 560.0000000000001 167.9999999999998C1232 167.9999999999998 1601.6000000000001 727.9999999999998 1601.6000000000001 1209.6C1601.6000000000001 1220.7999999999997 1601.6000000000001 1243.1999999999998 1601.6000000000001 1254.3999999999999C1680 1310.4 1747.2 1377.6 1792 1456L1792 1456z" />
    <glyph glyph-name="pinterest"
      unicode="&#xE042;"
      horiz-adv-x="1792" d=" M896 1792C403.2 1792 0 1388.8 0 896C0 515.2 235.2 190.3999999999999 571.1999999999999 67.2000000000001C560 134.3999999999999 560 246.3999999999999 571.1999999999999 324.7999999999998C582.3999999999999 391.9999999999998 672 772.7999999999998 672 772.7999999999998S649.6 817.6000000000001 649.6 896C649.6 1019.2 728 1120 817.6 1120C896 1120 929.6000000000003 1064 929.6000000000003 996.8C929.6000000000003 918.4 884.8000000000001 806.4000000000001 851.2 694.3999999999999C828.8000000000001 604.7999999999997 896 537.5999999999999 985.6000000000003 537.5999999999999C1142.4 537.5999999999999 1265.6000000000001 705.5999999999999 1265.6000000000001 951.9999999999998C1265.6000000000001 1164.7999999999997 1108.8 1310.3999999999999 896 1310.3999999999999C638.4 1310.3999999999999 492.8000000000001 1120 492.8000000000001 918.3999999999997C492.8000000000001 840 526.4 761.5999999999999 560 716.7999999999997C560 705.6000000000001 560 694.3999999999999 560 683.2C548.8000000000001 660.8 537.6 593.5999999999999 537.6 582.3999999999999C537.6 571.2 526.4 560 504 571.2C392 627.2 324.8 784 324.8 918.3999999999997C324.8 1198.4 526.4 1456 918.3999999999997 1456C1232 1456 1467.2 1232 1467.2 940.8C1467.2 627.2000000000003 1276.8 380.8 996.7999999999998 380.8C907.1999999999998 380.8 817.5999999999999 425.6000000000002 795.1999999999998 481.6000000000001L739.1999999999998 268.8C716.7999999999998 190.4000000000001 660.7999999999998 89.6000000000001 627.1999999999998 33.6000000000001C716.8000000000001 11.2 806.4 0 896 0C1388.8 0 1792 403.2000000000001 1792 896C1792 1388.8 1388.8 1792 896 1792L896 1792z" />
    <glyph glyph-name="following"
      unicode="&#xE050;"
      horiz-adv-x="1792" d=" M896 392C896 515.2 940.8 627.2 1019.2 716.8C907.2 750.4000000000001 918.3999999999997 750.4000000000001 918.3999999999997 884.8000000000001C918.3999999999997 985.6 963.2 929.6 1008 1120C1019.2 1198.4 1030.3999999999999 1142.4 1064 1276.8000000000002C1075.2 1344 1041.6000000000001 1344 1052.8 1377.6C1052.8 1411.1999999999998 1064 1433.6 1064 1500.8C1064 1579.2 996.8 1792 728 1792S392 1579.2 392 1500.8C403.2 1433.6 403.2 1411.1999999999998 403.2 1377.6S380.8 1344 403.2 1276.8000000000002C425.6 1153.6 436.8 1198.4 448 1120C481.6 918.4 537.6 985.6 537.6 873.6000000000001C537.6 716.8 548.8 750.4000000000001 313.6 672C67.2 582.3999999999999 11.2 526.3999999999999 11.2 481.6000000000001C0 436.8 0 336 0 336H728H907.2C896 358.3999999999999 896 369.6000000000002 896 392z M1422.3999999999999 336L1321.6 235.2000000000001L1399.9999999999998 156.8L1635.1999999999998 392L1399.9999999999998 627.2L1321.6 548.8L1422.3999999999999 448H1008C1030.3999999999999 638.3999999999999 1198.3999999999999 784 1388.8 784C1601.6000000000001 784 1780.8 604.8 1780.8 392S1612.8 0 1388.8 0C1187.2 0 1030.3999999999999 145.6000000000001 1008 336H1422.3999999999999z" />
    <glyph glyph-name="followers"
      unicode="&#xE051;"
      horiz-adv-x="1792" d=" M896 392C896 515.2 940.8 627.2 1019.2 716.8C907.2 750.4000000000001 918.3999999999997 750.4000000000001 918.3999999999997 884.8000000000001C918.3999999999997 985.6 963.2 929.6 1008 1120C1019.2 1198.4 1030.3999999999999 1142.4 1064 1276.8000000000002C1075.2 1344 1041.6000000000001 1344 1052.8 1377.6C1052.8 1411.1999999999998 1064 1433.6 1064 1500.8C1064 1579.2 996.8 1792 728 1792S392 1579.2 392 1500.8C403.2 1433.6 403.2 1411.1999999999998 403.2 1377.6S380.8 1344 403.2 1276.8000000000002C425.6 1153.6 436.8 1198.4 448 1120C481.6 918.4 537.6 985.6 537.6 873.6000000000001C537.6 716.8 548.8 750.4000000000001 313.6 672C67.2 582.3999999999999 11.2 526.3999999999999 11.2 481.6000000000001C0 436.8 0 336 0 336H728H907.2C896 358.3999999999999 896 369.6000000000002 896 392z M1377.6000000000001 336L1478.4 235.2000000000001L1400.0000000000002 156.8L1164.8000000000002 392L1400.0000000000002 627.2L1478.4 548.8L1377.6000000000001 448H1792C1769.6000000000001 638.3999999999999 1601.6000000000001 784 1411.2 784C1187.2 784 1008 604.8 1008 392S1187.2 0 1400 0C1601.6000000000001 0 1758.3999999999999 145.6000000000001 1780.8 336H1377.6000000000001z" />
  </font>
</defs>
</svg>
