<?xml version="1.0" encoding="utf-8"?>
<!-- Generator: Adobe Illustrator 17.1.0, SVG Export Plug-In . SVG Version: 6.00 Build 0)  -->
<!DOCTYPE svg PUBLIC "-//W3C//DTD SVG 1.1//EN" "http://www.w3.org/Graphics/SVG/1.1/DTD/svg11.dtd">
<svg version="1.1" id="Layer_1" xmlns="http://www.w3.org/2000/svg" xmlns:xlink="http://www.w3.org/1999/xlink" x="0px" y="0px"
	 viewBox="0 0 17 17" enable-background="new 0 0 17 17" xml:space="preserve">
<path d="M13.5,12c-0.7,0-1.4,0.3-1.8,0.8L5.8,9.3C5.9,9.1,6,8.8,6,8.5c0-0.3-0.1-0.6-0.2-0.8l5.8-3.5C12.1,4.7,12.8,5,13.5,5
	C14.9,5,16,3.9,16,2.5S14.9,0,13.5,0S11,1.1,11,2.5c0,0.3,0.1,0.6,0.2,0.8L5.3,6.8C4.9,6.3,4.2,6,3.5,6C2.1,6,1,7.1,1,8.5
	S2.1,11,3.5,11c0.7,0,1.4-0.3,1.8-0.8l5.8,3.5c-0.1,0.3-0.2,0.5-0.2,0.8c0,1.4,1.1,2.5,2.5,2.5s2.5-1.1,2.5-2.5S14.9,12,13.5,12z
	 M13.5,1C14.3,1,15,1.7,15,2.5S14.3,4,13.5,4S12,3.3,12,2.5S12.7,1,13.5,1z M3.5,10C2.7,10,2,9.3,2,8.5S2.7,7,3.5,7S5,7.7,5,8.5
	S4.3,10,3.5,10z M13.5,16c-0.8,0-1.5-0.7-1.5-1.5s0.7-1.5,1.5-1.5s1.5,0.7,1.5,1.5S14.3,16,13.5,16z"/>
</svg>
