<?xml version="1.0" encoding="utf-8"?>
<!-- Generator: Adobe Illustrator 22.0.1, SVG Export Plug-In . SVG Version: 6.00 Build 0)  -->
<svg version="1.1" baseProfile="tiny" xmlns="http://www.w3.org/2000/svg" xmlns:xlink="http://www.w3.org/1999/xlink" x="0px"
	 y="0px" viewBox="0 0 16 16" xml:space="preserve">
<g id="Layer_3">
	<path d="M8,12.5c0-1.1,0.4-2.1,1.1-2.9c-1-0.3-0.9-0.3-0.9-1.5C8.2,7.2,8.6,7.7,9,6c0.1-0.7,0.2-0.2,0.5-1.4C9.6,4,9.3,4,9.4,3.7
		c0-0.3,0.1-0.5,0.1-1.1C9.5,1.9,8.9,0,6.5,0s-3,1.9-3,2.6c0.1,0.6,0.1,0.8,0.1,1.1S3.4,4,3.6,4.6C3.8,5.7,3.9,5.3,4,6
		c0.3,1.8,0.8,1.2,0.8,2.2c0,1.4,0.1,1.1-2,1.8c-2.2,0.8-2.7,1.3-2.7,1.7C0,12.1,0,13,0,13h6.5h1.6C8,12.8,8,12.7,8,12.5z"/>
</g>
<g id="Layer_2">
	<path d="M12.3,13l0.9,0.9l-0.7,0.7l-2.1-2.1l2.1-2.1l0.7,0.7L12.3,12h3.7c-0.2-1.7-1.7-3-3.4-3C10.6,9,9,10.6,9,12.5
		s1.6,3.5,3.5,3.5c1.8,0,3.2-1.3,3.4-3H12.3z"/>
</g>
</svg>
